<mxfile host="65bd71144e">
    <diagram id="TiAHtVPxmQlhdEUkqJjs" name="Page-1">
        <mxGraphModel dx="252" dy="186" grid="1" gridSize="10" guides="1" tooltips="1" connect="1" arrows="1" fold="1" page="1" pageScale="1" pageWidth="850" pageHeight="1100" math="0" shadow="0">
            <root>
                <mxCell id="0"/>
                <mxCell id="1" parent="0"/>
                <mxCell id="2" value="" style="shape=image;verticalLabelPosition=bottom;labelBackgroundColor=default;verticalAlign=top;aspect=fixed;imageAspect=0;image=data:image/png,iVBORw0KGgoAAAANSUhEUgAAA30AAARUCAIAAABN7O2eAAAAKXRFWHRjb3B5bGVmdABHZW5lcmF0ZWQgYnkgaHR0cDovL3BsYW50dW1sLmNvbREwORwAAAU2aVRYdHBsYW50dW1sAAEAAAB4nO1X204cRxB9H2n/ofIUkBIH1iFRBisxLGBs7RLEYPLczNTuNsx0j7t7FrDlD/KDHyJ/QKTsj+X0XPbKJWCUvMBKaKan6nTVqVM10y+tE8YVWdoKvnFDzpjyVEjVCqgVlI9aQXgirXRCOaaEY5kwGY6FGQhDeZFaNoIO9jqbrUD2aeXvv46qh7C1MN3KUxmLWI6/KOqNv4xkSpo64oyNpr3xZytj/dsqYWdFK8u2q4gDf2GDKcgZMRp/skCnVFyDvll5MOKilfl9FsGw5bwBfFklso+Ud1Oy0jrOBMVajSQbZJ9pxQn8LhGEOvN5C1LYXSvhzYktKY7ZCiM9Vtgx40+JdNqSGP8pEpn4Kx92TdtmyfK3iCI7lZpyI1Usc2CJd8X4c0g7cgTmfW7Itp8WZ/DPhfEhZbkB/Vck4pgTNoB9jygsKmMdYAYyEbYV9LU5r5Oe1tCwSOX7BsTWhFW165Rr/hEAviOrixEraSwukei5Re0ad50jA587sgaTfmNRGL+DnRQ0Gn+uSS9jiDjluKQLueqkiJ0GIJgYybhkbGJ5wkb2UVmKawqRKqhPfDEWRNf4VAlEBdwk+zwXXQXEW4hE3BBdue+h0Z7Pcpu0oWhzweiIc21cKUVlUYCyQmIqGOiDjdK+aJlQfFZeJVJBaQtQlUoP9GIYO6x4IK6NoBbozGUpopn6Fk6WBWp49b2Set28K3jSpAdep3DwdYMdtCSQTlzXUyMdKB6rVp8aLu8GUvybQofdlFFfKC8rUt8IVM6LcpOSqTqXMKrZmn1cbp77Gtgye6k8zrzfVhmZvSMyNIaTI1TbXtOYC7SHO9L2TeFENVTsHBVWqspXeg0t59LUw09LnbeCl1gop2nwcjpZ538vrLtK+Ve/udHa0YcqjG002MDoQiUdnWpDF0PpuHq0p5WrFk9TWE0XDwQGNpolEUpUq/tX6MuuVOeNfVFjYI2XMPzi8VDG50jV0nq12MN0RNYb/u6j/xeL3IGNJtB5p7WJWR/JYBTdYTVkkdxtpTSo/tDEcymzIvtDJm5Iz9emRk66dGLl6Yjke6Z2+zboFz807KNi51L5eZrRljH6oqvTVOY6n2NpanNDfaYGO9wXReqW67Jk0tNK21xg1EyMO7oweMvMGndln1MkEUGOjgdXIMXqVCazNoeQmPQvDeUORYIhM6D1tVmDiNH2KmYP5hnZ1gb035BiNBSJvvAgfYEemX301vI2OxF58jD5vKrmCPTtJt1VVY0bpbwtzIIGr4nnWr0vs/pxrjh+M2Hq/Zf8F2wvK7OGsY0Fg440ccpJZ4i7eCLp24KaVI/oCC/6wtIvi5gYLPYudh6Hi3KrLYfvgNPC8d3B34ISIXvWDjPloTB7M0Ph/t77M8PiAd5+FqKDziuA2Yk4Z/car/tDQIoBz1s2Gr2+YMsYBq8c97UY4AuiS74OpTjFh/GDIQ70w3Xz++kZ4q+Vvizoj/PTa4b0R1J/5CYluE+jLWA0st96NKTOoyHtPhrS60dDOvhKJLxeOsJyBXh873nzdFj9jw6rTyfKpxPl04nyfzpRHqaI5G2vSyM21h/I1p+119rtZz+v4EBBW8UAZx9ab4dr6+HzNersHJN/vBqsvDrs+s4zsVeNrT4M4b8avBEjQUeFcjLjkPzdynFvlaLdZpF2MU+MVhkaIHhz0quMaF+7KNeuNP7px++3pcNBwyAsOukF9SEHrrH239chdfL19kY76Ao1KPC+D8FtgE9m5cxVSG+j4B8QnsdsVea4pAAAgABJREFUeF7s3Xt4VNW5+PGEQCCkXANJSGIoV0lAEkXkkp+cqhRTeywFDgqUIFpAK0iFVp8jCMUCggW5yK2GY8G2kOrpoQ8eAY2W8pBWtHAg8VJ4qi0H0kQIxAASJCRkfm+zj8vt2ntP9iQTzMz+fv7g2fOuy157zey1XiaZSYQPAAAAaHoRegAAAABoAuSdAAAAuBbIOwEAAHAtkHcCAADgWiDvBAC3CgsLFyxYMGTIkJSUlIiICPlXjiUicb0qAMCCvBMA6vfRRx+NHTtWEs158+b96U9/Ki4ulqD8K8cSkbiUSh29GQDAhLwTAOqxZ8+e+Pj4n/3sZ5cvX9bL6khcSqWO1NTLAACfI+8EAH92797drVu3AwcO6AUWUkdqSn29AABQh7wTABx99NFHCQkJbpJOg9SU+vzAHQBskXcCgKOxY8f+7Gc/06N+SX1ppUcBAOSdAOCksLAwNTXV6Xc6nUh9acUn3AHAirwTAOwtWLDg3//93/WoC9JK2upRAPA88k4AsDd06NCCggI96oK0krZ6FAA8j7wTAOwlJSWVlJToUReklbTVowDgeeSdAGCvdevWVVVVetQFaSVt9SgAeB55JwDY4/1OAAgu8k4AsMfvdwJAcJF3AoA9Ps8OAMFF3gkA9vj+TgAILvJOAHDE3ysCgCAi7wQAR/x9dgAIIvJOAPBn9+7d3bp1c5N6Sh2pKfX1AgBAHfJOAKjHnj174uPjf/aznzn9rqfEpVTqSE29DADwOfJOAKjfRx99NHbs2JSUlHnz5v3pT38qLi6WoPwrxxKRuJTy43UA8I+8EwDcKiwsXLBgwZAhQyTRjIiIkH/lWCJ8eh0A3CDvBICGkLxTDwEA/GLdBICGIO8EgECxbgJAQ5B3AkCgWDcBoCHIOwEgUKybANAQ5J0AECjWTQBoCPJOAAgU6yYANAR5JwAEinUTAFwpLS01P9TyTq0UAGBF3gkAruTm5u7bt089NOedEpdS9RAAYIu8EwBcKS8vb9eunUo9Vd65bNmyuLg4Kf2iKgDADnknALg1dOjQ6OhoI/U08s6pU6e2bt06JydHrwoAsCDvBAC3Xn/9dUk3Y2NjJfWUA0k6IyMjo6Ki9u/fr1cFAFiQdwJAADp16mSknhF1br755vT0dL0SAMAOeScABOBHP/qRkXEa7rrrrjVr1uiVAAB2yDsBIADl5eVRUVFG0pmRkdGpUyc+UQQALpF3AkBghg4dauSd99xzD58oAgD3yDsBIDCvv/56ixYtJO/s168fnygCAPfIOwEgYMani/hEEQAEhLwTAAJmfLqITxQBQEDIO4GwUlpaunXr1okTJ2ZkZCQlJf3fh66BUJOcnJyZmZmTk7N9+/aKigr9hQ4gNJF3AmHi6NGjU6ZMiYuLk6Rzy5YtRUVFJSUleiUEz549e/QQgkdevYWFhZs3bx49erS8qufPn0/2CYQB8k4g5NXU1CxYsCAhIWHZsmUXLlzQi4EQV1xcPH369KSkpIKCAr0MQEgh7wRCW0VFxYgRI7Kzs8vKyvQyIIzk5+fLf662bdumFwAIHeSdQAirrKzMysqaM2dObW2tXgaEnWPHjiUmJvKuJxC6yDuBEDZ+/PipU6eSdMI78vPzk5KS+F1PIESRdwKhateuXddff31VVZVeAIS1GTNmzJs3T48CCAXknUBIqq2t7dOnT35+vl4AhLvi4uK4uDje8gRCEXknEJIKCgoyMjL0KOANo0ePzsvL06MAmj3yTiAkzZo16+mnn9ajgDfk5uZOnjxZjwJo9sg7gZA0bNiwAwcO6FHAGwoLCzMzM/UogGaPvBMISSkpKcXFxXoU8IZTp04lJibqUQDNHnknEJJatmxZU1OjR92JiPB34/svvZYaMBKnJk5xrwmbebh69WpUVJQeBdDshckaBHiN/wSiqKjouuuuk73ZHJSHEnz33XfNQT/8n6JejWzuC0YPShC7CmnXbB7kRA899JAWUQcaIy6vzLvvvrtDhw6xsbGDBg36zW9+80VjO6ohgBDCfQuEpHo33Ztvvvm1114zR/bs2XPLLbeYI/7Vewr/GtncF4welCB2FdKu2TzIicaMGXPo0CFzRDsw+8c//hEfH79mzZpTp06dPn169+7dkyZN0it9mW0/AJo57lsgJNW76f785z+/5557zJHx48fn5ub6TG0lLbj11ltjY2OTk5OnTZtmBI3Sf74NZWIU9ezZs22dIUOGHDx4UNXPy8uTNNd4m+rIkSO2za9evbp8+XLpoWPHjvfee6/tly9KnWeeeaZ79+7S1ciRI9V5ndpeuXLlscce69atmzSRhj7TpQXalVlE3RWlpaW1atXK59zEenaf3ylSHdbW1q5cubJHjx7t2rXLzs42/7zYTXMzKdq0aZN01b59exnb+fPnVVyrph3YPvVOV2odgO04zaTJhx9+KKdQf0zLOgaz+++//6c//ake9cu2HwDNHPctEJLq3XQvXLjQuXPns2fPGg/lQB5K0Gdq26tXr507d168eFFShKVLlxpB//mBuHTp0pIlSwYOHGg8lGqzZ8/+4IMPpJ9Vq1YNHjxYxb9o4/OtXr1aTnGuzkN1zKWG9evXP/7442fOnLl8+bJkM6oHp7aLFy9+5JFHJD06ceLE2LFjfaaTBtqVmVSWtiUlJcZDpybWsyvWKTJ3uHHjxrVr18pzIdX2799vnWf/zc2kaOHChcePH5eMc9asWfJEqLhWTTuwfeqdrtRpANo4zYwT/fjHP968ebM5Yj4wS0xMlJHoUb9s+wHQzHHfAiHJzaY7depUyW+M4zVr1jzwwAPGsWorm/26deu09/z85wcGyVfUu3TmahKPjo62xkW/fv3Uu3GSBCcnJ5tLDQMGDFCJss/Ug1Pb3r17l5WVGccG1STQrsxcjtx6djOnKRI33HCDec5t59lPczNzUWlpaWpqqjVufuj/qXe6Uj8DMI/TzGgivaWnp5eXl6uIcWBmBFu2bClZ7OetXfEzKgDNFvctEJLcbLp//OMf1d80Gjhw4FtvvWUcq7Z79+4dOnSobPmSCb366qtaqXaKkydPzpw5MzMzMyEhoU2bNk7VnOIxMTEq1RCRkZHmUlXH/Fko1YNTWxmG9tkpc5OAujJTlQ1OTaxndzlFTmNz2dzMXFRdXS2trHHzQ3Vg+9Q7XanWm9M4zVQwNzfXeN/UOgazrl27Hjt2TI/6ZdsPgGaO+xYISS433bS0tEOHDh08eDA9PV0FtbYXL1584YUXunTpopW2aNHC/FVN/fv3f/LJJ4uKisrLy69cueKURjg179u3r/UHtZrU1FTzm16qK6e2PXv2PHPmjDmimgTalZl2RU5NrGd3OUUpKSmVlZXqoSp12dzMXCStevfubRxHR0d/9tlnqsipK+2pd7pSrZXTOM1UUDLsm266SV6ETmMwjBs37qmnntKjftn2A6CZ474FQpLLTXflypUPP/zwD37wg1WrVqmgavvcc88dP35cUoc333xTcg6tVJKYbdu2qXfm4uPj9+7dK5VPnjyZm5vrlEY4NV+xYsWmTZs++eSTy5cvHz58eMyYMV+0+dzs2bNff/11yVaLi4vnz5+vunJq+8QTTzz66KPGb1jm5OT4TGcPtCsz7YqcmljP7nKKZs6cKTMjvX3wwQcPPPCAKnXZ3EyK3nnnnaqqqnPnzi1btkz9mungwYPXrl0rcTmFTIW1K9un3ulKtQE4jdPMHPzDH/4wZMgQ6xjMJIvt2LHj6tWry8rKJJt/7bXXsrKy9EpfZtsPgGaO+xYISS43XdnCExISJFEwvzOn2k6fPj0lJSUmJmbo0KHqK29UqeRtkpG0atVKmstDSQX69esXHR0tCeXixYud0gin5pIC7tixIy0tTU53++23v/jii+ZWhvPnz0+aNKlDhw7SUNIm1ZVT20uXLklW3bVr19TUVO3z7IF2ZaZdkVMT69ldTpHkiBMnTpSxSW9HjhxRf3fHZXMzKRo5cmTbtm1lDJJ3Xrx40YhLt4MGDZL4jTfeKDmutSvbp97pSrUBOI3TTAtKQmwdg+bgwYPZ2dnt2rWTngcOHLhkyRK9xpc59QOgOeO+BUJSY/5eEZqJysrKjRs3Sg6qF7jm2dzrKn+vCAhNHl2zgFDH32cPad27d2/VqlXnzp3HjRt36tQpvdg1z+ad/H12IER5dM0CQt2wYcMOHDigRwFvKCwszMzM1KMAmj3yTiAkzZo16+mnn9ajgDfk5uZOnjxZjwJo9sg7gZBUUFCgvpsT8JrRo0fn5eXpUQDNHnknEJJqa2v79OmTn5+vFwDhrri4OC4uTvtjSwBCAnknEKp27dp1/fXXV1VV6QVAWJsxY8a8efP0KIBQQN4JhLDx48dPnTq1trZWLwDCVH5+flJSEm92AiGKvBMIYZWVlVlZWXPmzCH1hBccO3YsMTGxoKBALwAQIsg7gdBWUVExYsSI7OzssrIyvQwII/n5+QkJCdu2bdMLAIQO8k4g5NXU1CxYsEC25GXLll24cEEvBkJccXHx9OnTk5KSeKcTCHXknUCYOHr06JQpU+Li4iZOnLhly5aioqKSkhK9EhAi5NVbWFi4efPm0aNHy6t6/vz5/E4nEAbIO4GwUlpaunXrVkk9MzIykpKSIoDQlJycnJmZmZOTs337djJOIGyQdwJAQ0R49W+jA0CDsW4CQEOQdwJAoFg3AaAhyDsBIFCsmwDQEOSdABAo1k0AaAjyTgAIFOsmADQEeScABIp1EwAagrwTAALFugkArpSWlpofanmnVgoAsCLvBABXcnNz9+3bpx6a806JS6l6CACwRd4JAK6Ul5d37txZpZ4q79y9e3dcXJyUflEVAGCHvBMA3Lrpppvatm1rpJ5G3vm73/0uOjo6JydHrwoAsCDvBAC3NmzYEBkZGRcXJ6mn5J2SdLZs2bJFixb79+/XqwIALMg7ASAArVu3TkhI6NKli+SdknTGx8enp6frlQAAdsg7ASAAY8eOlYyzR48eEXUGDx68Zs0avRIAwA55JwAE4G9/+1tkZKSRdLZp06Zjx458oggAXCLvBIDA9OzZU73ZySeKAMA98k4ACMyGDRuMvPPrX/86nygCAPfIOwEgYK1bt5a8k08UAUBAyDsBIGDGp4v4RBEABIS8E2h29u3bFxsba/wkF0CDyX1k/tOmAL5y5J1ojiI+/wuE6qDBtB62bt06btw4c6SR3HQY0OXINhkfH89m2fzt2bNHD6GZabq7yc293Bh+FpamPjXQpHj54prq1atX79699ahF0y2so0aN+vjjj/WoMxnJmDFj1MMpU6ZoYwuow3qvq+m2ScCbXN5TR44cyc7ObteuXWxs7ODBg6/xfyr+7+3Zz/kCXFiAEFLPLggE0YEDBwYNGnTTTTe98847etmX1ZufXTMykgEDBvz1r3+VY9kGbrzxxsaMzX9blxskgIDUe2cdPnxYKmzduvXs2bOnT5/evXv3jBkz9EpNyf/KAIQTXuu4dh555JFnn332Zz/72Q9/+EMVlAV37ty5Xbp0SUtLO3LkiApqBxcuXJCdQPaGjIyMN9980wh27949Ojo6JSXl17/+tVM11UNxcfEdd9zxta99Tf4tKSkxglL61FNPJScnS5OXXnrJCJpJhdzc3AcffFCOFyxY8MILL/jp8MqVK5JYX716VY7lXzmWiNGJ6s04sKp3awTQYP7vr9tuu02STj36Oes688/3JD+/l8+cOTNmzJh27dqlp6fLf61Vherq6u9///vS0Ge3VmisK4OK5OXlpaamdujQYcKECVqRdbmr90TAV05/rQNNpKamplu3bv/4xz9OnDghB/LQiMsaKgvr+fPnV61a9Y1vfEMFtYNp06atWLHi008/leZjx441gqK2tvbQoUMJCQlO1VQP3/3udyXFlJV64cKF6henpHTDhg2ffPLJK6+8IvuKETSTCp999pms+9LhgAEDLl++7L/DmTNn7tq1Sw52794tebbqRDvQ+N8UATSen7usbdu2ZWVletREW2d8pnv5e9/73q9+9StZGX7/+99L/qdKn3/+edWn7VphFmGiIsZBx44d5T/kFRUVy5cv14qsy129JwK+cva7IBB0r7/++r/8y78Yx1lZWW+88YZxrNZQWT3btWunBdVBly5dLl26ZBwbPvzwwwkTJvTo0UP2DD/VzMu3ZLdycO7cuU6dOmml1dXV6tjMCP7kJz9JT09fvHixivgcOnz77be/853vyMGYMWMOHjxo7sR8YOZnOwQQRE73WkxMzOnTp7WgwXad8Znu5bi4uIjPtWzZUis12K4VZtaVQUVuueWWb33rW1u3bjV6MBdZl7t6TwR85fTXOtBE7rvvPrU6i/vvv9+IqzW0vLxctgQtaF5hL1++bBwbevbs+eyzzx4/ftz8HqS1miqSFVnWYl/dity5c2etVDvWgmVlZdLk7NmzKuJz6FBIhvrnP/954MCBKmK9HMVpIwTQFGzvuOHDh2/ZssUcUWzXGZ/pXpb0zpqzane601qhWFcGFamsrPz1r3/9b//2b4MGDdKKrMtdvScCvnL6ax1oCp999pksgqdOnTIeyoE8NFZMWUM/+uijixcvzp07V/2pa2ui9r3vfS83N1f+c3/ixAmjmvTwP//zPxcuXHjppZf8VFNFo0ePXrRo0aeffrpw4UL1k3rbjcTMGvTfoVi8eHFKSsqyZctUxHo5BtstMNRZZ8y9xrT1w2n+G0Drwc+X3TSMmw6DeDkuNfWJ/Fx1U5zaet+99dZbcXFxMgz53++ZM2dee+21rKwso8h2nfGZBnbPPfc8+eSTn3zySUlJybRp07RSg9NaoVgvU0V+8pOfVFRUFBYWWn9KY13u6j0R8JXTX+tAU/jtb387cuRIc+SOO+74r//6L1/dGir/j2/btu23vvUt9baBdWeV/WDSpEmyB/Tu3XvTpk0S+eUvfxlX57HHHvNTTRXJ0nzbbbfFxsbKv8XFxUbQdiMxswb9dyiOHz8eFRVljlgvx2e3+dnSRijatGkjM6Z+iN/cWGfMvUDb8rVcesidMP7OoLvvvluuq3v37q+88opeZmK9+/Lz82+//fauXbtGR0cPHDhwyZIlRtx2namtrVXHZWVlEyZMkDXn+uuvlyzQCGpPjdNaoWj1zRFZ0Dp27JiUlLRt2zatyLrc1Xsi4Cunv9aBa8y64HqBddtzw5irqqqq559/fsCAAXpx89CYJzSgtnwtV8Pahvd3Bm3evPnTTz+Vi+rWrZte9mUNuwcNf/rTn9QvBQEISBPe/4AbTboJNU8BbXjm+VHHFy9ejI2NVXHbb3KxfseKz+EbYcxf+CJdfec735HOb7nllqioKKOObUOzsrKyb3/7223btpUsUA3SdlTWL4Vx31bD13LZ3jvWfjRe+M4gyekTExPNEVsB3YlK+/btO3Xq9Itf/EIvAOCCfv8DaDxjq/ZjxYoVehs7svebP5QaUbcHS9K5aNGie+65R8Vtv8nF+h0rBu0bYSK+/IUvU6ZMefTRR6XV0aNHjdMp1q+SUSZPnmy0+uijj1Qr21FZvxTGfVszvpbLfGBm249Z2H9nUHl5+Te/+c1169apiB/Sp3k8tvQ2ABqBOwoIPv97lct3WWTjlO3TnCKojXDMmDGSfaq47Te5WL9jxfYbYbShysBk29aKbBuade3a1drKdlTWL4Vx39aMr+UyH5jZ9mMW9t8Z1LlzZ0mOv6jnzM2daB0tgMbgjgKCr969ys2GJxW0D1sY3RYUFAwYMMCcOth+k4v1O1ZsvxFGG6rkaiqjVUW2Dc2kleR5xrGqYDsq65fCuG9rxtdymQ/MnPpRwv47g6z923JzD/pc9wbAJe4oIPjc7FX1bnuJiYm7d++ura1Vn8xV3R46dOi73/2u8dt+PodvcrF+x4rtN8JoQ73tttvWrl0rieCOHTtUkW1DszvuuGP16tVS4T//8z9VBdtRWb8Uxn1bha/l0g7MnPpR+M4gn4u7T7GOFkBjcEcBwedyr/K/+f3ud79LTU392te+dtdddxkRc7fvv/++bLrGse03uVi/Y8X2G2G0ob777rv9+/fv0KHDAw88oD66ZNvQTAYzYMAAyRVmzZqlKtiOyvqlMO7bKnwtl3Zg5tSPWXh/Z5C1f43/+05Tb28AAsIdBQSf+70qoC3wmrl69erOnTuHDh2qFzR77mceLoXZdwYFesfxigKCizsKCL6A9qpAN8KmlpSU1KpVqxtuuOHPf/6zXtbsBTTzqFeYfWdQA+41XlFAcHFHAcEX6F7VgO0QQEAadpcFei8D8I87Cgi+BuxVDdsUAbjR4PurAfcyAD+4o4Dga9he1eCtEYAfjbmzGnYvA3DCHQUEQWlpqfmhtldppX40ZoMEYBXoPRWsexmALfJOIAhyc3PNG5t5r5K49ZuA/Ah0mwTgpAF3UxDvZQBW5J1AEJSXl3fu3FltV2qv2r17d1xcnPo7kC5JP7GxsREAGkfuo4CSTl+w72UAGvJOIDhuuummtm3bGtuVsVf97ne/i46OVn81B0BI4F4Gmg55JxAcGzZsiIyMjIuLk+1K9irZqFq2bNmiRYv9+/frVQE0Y9zLQNMh7wSCpnXr1gkJCV26dJG9Sjaq+Pj49PR0vRKAZo97GWgi5J1A0IwdO1Z2qR49ehi/WzZ48OA1a9bolQA0e9zLQBMh7wSC5m9/+1tkZKSxUbVp06Zjx458CgEIRdzLQBMh7wSCqWfPnuoNEj6FAIQu7mWgKZB3AsG0YcMGY6/6+te/zqcQgNDFvQw0BfJOIMhat24texWfQgBCHfcyEHTknUCQGZ9I4FMIQKjjXgaCjrzTE/bv3z9z5szhw4enpqYaPzkCQp28mIcNGzZjxow33nijurpaf9GjachUy4TLtMvks56EB3keZXeQPYJfJ8A1QN4Z5nbt2tWnT5+MjIylS5e+9dZbJ06c0GugCezZs0cPIdhOnjx54MCBlStXZmVlxcfHb9iwgeyzScn0yiTLVMuEy7TL5MtToFcKO164l2VfkN1B9gjZKWS/kF1DrwEED3ln2KqsrBw/fnzfvn3z8/P1MiC8vP/++6NGjerXr19hYaFehmCQiZXplUmWqdbLEEZkv5BdQ/YO2UH0MiAYyDvDU0VFRVZW1tSpU6uqqvQyIEy9/PLL8fHxO3bs0AvQODKlMrEyvXoBwpHsGrJ3yA4i+4heBjQaeWcYqqmpGTFixJw5c2pra/UyIKwdPnw4OTmZ1DOIZDJlSmVi9QKEL9k7ZAeRfUR2E70MaBzyzjC0YMGC7Oxskk54k2RI8fHxR44c0QsQOJlGmUySTg+SHUT2EdlN9AKgccg7w83Ro0cTEhLKysr0AsAzXn755bS0ND5m1EgygTKN/Hjds2Qfkd1E9hS9AGgE8s5wM2XKlGXLlulRwGPuvPPO9evX61EEQiZQplGPwktkN5E9RY8CjUDeGVY+/vjjLl26XLhwQS8APOa9995LTEzkLc8Gk6mTCZRp1AvgJbKbyJ4iO4teADQUeWdY2bJly4QJE/Qo4EnDhw/nS8QaTKZOJlCPwntkT5GdRY8CDUXeGVYmTpzIAgEYnn322QcffFCPwh2ZOplAPQrvkT1FdhY9CjQUeWdYycjIKCoq0qOAJ7399ttDhgzRo3BHpk4mUI/Ce2RPkZ1FjwINRd4ZVhITE0+dOqVHAU8qLi5OSUnRo3BHpk4mUI/Ce2RPkZ1FjwINRd4ZVqKioq5evapH4c7WrVvHjRunR12LiAjgbgqocqBU50E5i7WTRk6UH256dn91NTU1LVu21KNwR6aO7wxvmHpfmcHi/34J1jBkT5GdRY8CDRWc1yWaiXoXmojPfe1rX/vXf/3Xv//973qNEFHvlTbAqFGjGvOxzYCGFFBlcf78+aSkpPj4eDnQyywC7TxQDZgoGVJWVpY58u1vf9s6zoB6tja3clMHttxMXdisJ368++67d999d4cOHWJjYwcNGvSb3/xGr3FNqKlWfAHeL41hnA4ICl5MYaXe1cGoUFtbe/bs2aVLl6anp+s1QkS9V3rtBTSkgCqL559//qGHHrrvvvtyc3P1MotAO78GZEi9evVSvy/417/+tU+fPo0cp5vmburAlpupC5v1xMk//vEP+c/emjVrTp06dfr06d27d0+aNEmvdE24eTqazld7doQZXkxhpd7VwVzh3Llz7dq1M46vXr26fPnynj17duzY8d57762oqDDiV65ceeyxx7p169a9e/dnnnnGCEq1tnWGDBly8OBBIyg95+XlpaWltWrVyle3Fa1cubJHjx5yiuzsbPOPaWyba/zXifgyI2I+u8+uh6qqqltuuUV1IscS8Tlf+6FDh2699dbY2Njk5ORp06aphoo0lDmRmZE6I0eOVHPr1KGZquyzG6qVFB04cOAPf/jDsGHDVFA62bRpk0xy+/bt5UTqrVDVuTpw/zxaa6pOZLrmzp2bWEcOjNkzKsjk33zzzcYbQrZ/oFLqrFu37p577jEezpo1a+PGjf57dnq+rFfnh5s6sOVm6sx1mu164jQYN6/b+++//6c//ake/ZztqSPqGMf+T62uzvb1r7F9OlTQdrFSpdZpd3NGM9uzAw3Diyms1Ls6GBVkNSwtLV20aNGPfvQjI7569eqlS5eeq/NQHSO+ePHiRx55RJbLEydOjB07VvUjLl26tGTJkoEDBxoPpefHH3+8pKTEeChZxdq1ay9cuCDV9u/fbx2Y1tyWnzpah9rZFa0HyXuM3aWwsFB9M4jTtffq1Wvnzp0XL1788MMPpYIRNFu/fr2c9MyZM5cvX5ZdRw3JqUOzgCbkL3/5S9++fX11u69sverP1kknCxcuPH78uGScksnNnj1bxbUD98+jtabqRF4wsmlV1pELfOqpp4y4VJBTf/DBBzJXq1atGjx4sBE3kzpS2rVr1//93/+VaZGrkPPW27Pt82W9Oj/c1IEtN1Nn1Gnm64nTYNy8biUtk9tfj36Z9dRqeH5Obb46p9e/mfWSzUHbxUqVWqfdzRnNbM8ONAwvprBS7+oQ8bl27dpt375dxfv166feLTt79qz8p9k47t27t58/9S7LnHrjQTv1DTfcYH6fz3Zg5uZOnOpoHdr2bzD3IJcsy70cPPHEEy+99JIRdLp22XLWrVtn+26lYcCAAVJfPVRjcOrQzHbAThf72GOPqb3kJz/5iXEJvi93Iht/amqqFlcH7p9Ha03Viext6nol25aHWgVfXVfR0dHqoWLUmTdv3pw5c1auXCnbngr6nHu2fb6sV+eHmzqw5WbqIj7XnNcTp8G4ed22bNlS0ko9aqGdWvXs5tQ+59e/mZpqgwoaB7aLlSq1TrubM5ppAwYagxdTWKl3dTAqVFVV/b//9/9efPFFFY+JiTEvapGRkUa8TZs22gfkT548OXPmzMzMzISEBCm1roAG6dDcUJU6NTdzU0cLag+depA9oE+fPrW1tenp6eqviTpd+969e4cOHSobj+x5r776qhE0c7pGpw7NVGWnoSrV1dVJSUlSzXj497//XR4aHzQ2V5Zq0tw4VnF14P55tNY0F6kPONuezvahOWj8HVfZjGWrU0Gfc8+2z5f16vxwUwe23EydUaeZrydOg9Eq27bt2rXrsWPH9GgdP6dWxy5P7fT6N7MdngraLlaq1Drtbs5oZnt2oGF4MYWVelcHVUH++9u/f/+//OUvxsO+fftaf0jtq/sFJiNFUKTVk08+WVRUVF5efuXKFdWhduqUlJTKykr1UJU6NTdzU6dFixbmL3nR6vjpYdSoUWvXrr3rrrtUxOnaDRcvXnzhhRckW9ILfL7U1FTzeyHqLP47NLifkFdeeSXC4r//+799X75qad67d2/jWMXVgfvn0VpTFfXq1UsVyevH9v1O60MteP/99//gBz/Qgk49++yeL+vV+eGmDmy5mTpVpzmvJ06DcfO6HTdunNPPoP2cWh27PLWf179iOzwtqC1WqtQ67W7OaGZ7dqBheDGFlXpXB3OFd999V/6LbKzmK1as2LRp0yeffHL58uXDhw+PGTPGqPPEE088+uijxi8G5eTkSCQ+Pl7+by3rrPx3Pzc312mfmDlz5rZt26S3Dz744IEHHlClTs3N3NSRHEv6V/+J1+r46WHjxo0xMTGbN29WEadrf+65544fPy6dvPnmm8avV2pmz579+uuvS/pbXFw8f/58dRanDs3cT4g0N/8E01f3pX3qNy/feeedqqqqc+fOLVu2TP3CnPVJcf88WmuqokWLFi1dutT6O2HamK2XUG/QqWef3fNlvTo/3NSBLTdTZ67TbNcTp8G4ed1KWtmxY8fVq1dLciaJ2muvvaa+DszPqdWxy1P7ef0rtsNTQdvFSpVap93NGc1szw40DC+msFLv98Zry8crr7wii7iv7hu2d+zYkZaWJnv87bffrn5kdunSpYcffrhr166pqanGByFl5e3Xr190dLRkfosXL3baJyQTmjhxYocOHaS3I0eOJH7+5y6cmpu5qSMJnyyvrVq1ktXfZzm7nx5KSkpatmx5+vRpFXG69unTp6ekpEhQdtNDhw6p+sr58+cnTZok1ygjWbt2rTqLU4dmqrKfofrq3oro3LmzsZcrn376qeyFUiSVR44c2bZtW3l2JO+8ePGiUcH6pLh/Hq01VZEkuHPmzEmoIwfmz7MbB7YP3QSdevbZPV/Wq3PC98Y3hpvvjdeegua5njgNxs3rVhw8eDA7O7tdu3ZyloEDBy5ZssSIO51aTqd+nu7y1H5e/4rt8FTQdrFSpdZpd3NG5SrfG4+gsnkpI3QlNr+/kyk508aNG9WHkRFEtlsRFP5OZmM0z7+T2fzXkzfeeKN79+56NJTxdzIRXOxbYSUjI6OoqEiPfkVk8W3VqlXnzp3HjRvX3LLh8EDe6d/bb789ZMgQPQp3ZOrU9/w3ByGxnrRv3z4uLk5990J4kD1FdhY9CjQU+1ZYmThx4pYtW/Qo4EnPPvvsgw8+qEfhjkydTKAehffIntKc32BGyCHvDCuyQEyYMEGPAp40fPjw/Px8PQp3ZOpkAvUovEf2FN7OQBCRd4YV4/sR1TcdAp713nvvJSYmVldX6wVwR6ZOJlCmUS+Al8huInuK7Cx6AdBQ5J3hZsqUKcuWLdOjgMfceeed69ev16MIhEygTKMehZfIbiJ7ih4FGoG8M9wcPXo0ISHBzx+jA8Leyy+/nJaWxpudjSQTKNMok6kXwBtkH5HdRPYUvQBoBPLOMLRgwYLs7Oza2lq9APCAw4cPx8fHHzlyRC9A4GQaZTJlSvUChDvZQWQfkd1ELwAah7wzDNXU1IwYMWLOnDmknvAayZCSk5N37NihF6ChZDJlSkk9PUX2DtlBZB+p928HAIEi7wxPFRUVWVlZU6dO9f+HKIBw8vLLL8fHx5N0Bp1MqUwsP3D3CNk1ZO+QHUT2Eb0MaDTyzrBVWVk5fvz4vn378lUyCHvvv//+qFGj+vXrV1hYqJchGGRiZXplkmWq9TKEEdkvZNeQvUP787xAsJB3hrldu3b16dMnIyNj6dKlb7311okTJ/QaQGg6efLkgQMHVq5cmZWVFR8fv2HDBj5I1KRkemWSZaplwmXaZfLlKdArIQTJviC7g+wRslPIfiG7hl4DCB7yTk/Yv3//zJkzhw8fnpqaGgGEBXkxDxs2bMaMGW+88QYZ5zUjUy0TLtMuk896Eh7keZTdQfYI2Sn05xsINvJOIPgi+MvpQFjgXgaCizsKCD72KiA8cC8DwcUdBQQfexUQHriXgeDijgKCj70KCA/cy0BwcUcBwcde5QV80YwXcC8DwcUdBQQfe1XY27dvX3x8vPyrFyC8cC8DwcUdBQQfe1V4M5LOFStWkHqGPe5lILi4o4DgY68KY+Z3OnnXM+xxLwPBxR0FBB97VbiyJprWCMIJ9zIQXNxRQPCxV4UlpxTTKY4wwL0MBBd3FBB87FXhx39y6b8UoYt7GQgu7igg+NirwoybtNJNHYQc7mUguLijgOBjr2rOSktLc3Nzy8vL9QIH7hNK9zUNMgYZiYxHL0Czwb0MBBd3FBB87FXNnKSG7du3v/POOwsKCvSyLws0lXRZf9OmTbfddltcXFy9NfHV4l4Ggos7Cgg+9qrmb+/evS1btoyMjExMTFy6dKnt258uk0iNn1Z/+9vfxowZ07p1azlvbGysbR00K9zLQHBxRwHBx14VEiT1bNOmjTxZUVFR0dHR2tufftLHelnbbtq0qWfPnpJuyuluuOGGBveMa4x7GQgu7igg+NirQoVKPQ2tW7c23v585ZVXGpkaGqnn9u3bjTc41Sluv/32RvaMa4l7GQgu7igg+FSSgdA1bdo0/XkNkPSgd4oQpD+vABqBOwqAdy1cuNDILTp27DhixIhevXqlp6evXr06WO93Sj/Sm3TbuXPntm3bRtT9TL99+/aN6RkAQhd5JwCPMpLO1NTU4cOHd+jQYfLkyU33+53S88SJEyX17Nq1a4sWLUg9AXgTeScAL1qxYkWrVq0kBTTe4Lw2n2eXsxhvf0ZGRrZp08a2DgCEMfJOAJ4jCV9cXJz2BqctP0mkLZf15byTJk3i+zsBeA15JwBv4e8VAcBXhbwTAOrhJqF0UwcAPI68EwDq5z+t9F8KADCQdwKAK07JpVMcAKAh7wQAt6wppjUCAHBC3gkAATAnmiSdABAQ8k4ACIyRbq5YsYKkEwACQt4JAAGTdDMiIoKkEwACQt4JAA0heaceAgD4xboJAA1B3gkAgWLdBICGIO8EgECxbgJAQ5B3AkCgWDcBoCHIOwEgUKybANAQ5J0AECjWTQBoCPJOAAgU6yYAuFJaWmp+qOWdWikAwIq8EwBcyc3NNX9RvDnvlLiUqocAAFvknQDgSnl5eYcOHVTqqfLOn//853FxcVL6RVUAgB3yTgBwa9CgQa1btzZSTyPvXLhwYXR0dE5Ojl4VAGBB3gkAbu3cuVPSzfbt2xt/n12SzsjIyKioqP379+tVAQAW5J0AEABJOlu0aCH/RtQZMGBAenq6XgkAYIe8EwAC8PDDD0u6GRUVZeSdI0eOXLNmjV4JAGCHvBMAAnD27NkWLVoYSWePHj06derEJ4oAwCXyTgAIzE033WTknXfffTefKAIA98g7ASAwO3fujIyMlLyzb9++fKIIANwj7wSAgBmfK+ITRQAQEPJOAAiY8ekiPlEEAAEh70TIKy0t3bp168SJEzMyMpKSkoxfvAOAsJGcnJyZmZmTk7N9+/aKigp9EQRCB3knQtjRo0enTJkSFxcnSeeWLVuKiopKSkr0SkDT2LNnjx4CmoasbIWFhZs3bx49erSsePPnzyf7RIgi70RIqqmpWbBgQUJCwrJlyy5cuKAXA0CYKi4unj59elJSUkFBgV4GNHvknQg98h/9ESNGZGdnl5WV6WUA4AH5+fnyH+9t27bpBUDzRt6JEFNZWZmVlTVnzpza2lq9DAA849ixY4mJibzridBC3okQM378+KlTp5J0AkB+fn5SUhK/64kQQt6JULJr167rr7++qqpKLwAAT5oxY8a8efP0KNBckXciZNTW1vbp00f+f68XAIBXFRcXx8XF8ZYnQgV5J0JGQUFBRkaGHgUAbxs9enReXp4eBZol8k6EjFmzZj399NN6FAC8LTc3d/LkyXoUaJbIOxEyhg0bduDAAT0KAN5WWFiYmZmpR4FmibwTISMlJaW4uFiPAoC3nTp1KjExUY8CzRJ5J0JGy5Yta2pq9Kg7ERFuX+rua4aoML7AELq0EBqqJugjd9+h+5qhq2HXePXq1aioKD0KNEsNeYkDXwk3K3KEhYp/uWIDBaufEBJCl9x0Q226nsHcBgXTiFDBKxUhw83C6lTHKR6oYPUTQkLokptuqE3XM5jboGAaESp4pSJkuFlYnerYxg8dOnTrrbfGxsYmJydPmzbNCKqa1tKIL/PV/Xhr+fLlPXv27Nix47333qu+Qk9K58+f361bt+uuu+6Xv/zlo48+2q3Orl27jApCWrWtM2TIkIMHD6q4cuXKlccee0xade/e/ZlnnpFIVVXV3LlzE+vIgfr+fDldXl7ezTffLKMdNGjQkSNHjMq33HKL6k2OjfrqAv0MXnpLS0tr1arVl6/Y3yWbRdR3+QFdiM/5pBKXmZH5kfojR440Rmiod3pt+3z33XfVHyaQ+U9NTd2+fbt1EoxxGlNk9GZ7OqfLUf34HIah2tZ7Ck29dZyG5HNoa30RqpEH+iT6HE6hOjSz3n0+h5pOE2jbg5nTOJ06tE6FU02nUztdvvmJrnd6ndhODtAM8UpFyHCzsDrVsY336tVr586dFy9e/PDDD5cuXWoEVU3/pYbVq1dL0bk6D9VR1Z566qkzZ8689NJLkZGRclxWVvbyyy/L7mJuLi5durRkyZKBAwdqcbF48eJHHnlENrMTJ06MHTtWIosWLZINr7KOnFe6NWrK6WbPnv3BBx/IaFetWjV48GAjfs899xi7aWFh4cSJE1Vl48DP4B9//PGSkhKtvsGplVm9lx/ohTiddP369TJUOdHly5dlI7c+y36m16nPNWvWPPfcc3Lw/PPP//jHPzaCWs/aFCna6ZwuxygyDpyG4fIUtvzU8TMkg9bW+iJUIw/0SVSss/Tl8n9yc/cZnCbQtgczp3E6dWidCqea/k9tvXzb281pep3YTg7QDPFKRchws7BGWKj4lyv+U2Ji4rp167R37FRN/6WGfv36nT9/3jg+e/ZscnKycayqffbZZ5J4qeOWLVsax2ayP9l+JqB3796Srpkjsp/JWYxjSbbkoXFsHpX0Fh0dbRxv375dtjQ5eOKJJyQF1CrXO3jbh06tzOq9/EAvxOmkAwYMUP34LEM1OE2vU5+1tbX33XefZBLTp09Xn2PzPydm5tM5XY65yGkYLk/hxKmOnyGZ46qt9UWoegj0STRzmiXFzd1ncJpA2x7MnMbp1KF1Kpxq1ntqP5df7/Q6sZ0coBnilYqQ4WZhdapjG9+7d+/QoUMlGbrhhhteffVVI6hq+i81xMTERJioHMtczfb45MmTM2fOzMzMTEhIaNOmje3wJH716lUtojKh6upqeWgca83VQ9kU+/TpI4lUenr6hQsXtFI3g7c+dGplZm5iexzohTidVOLmKVL13UyvU5++up+2z507V/5VEa0H7aHT6fy0UsdOw3B5ikDrOA3Jqa31RWguCuhJdDqF7Tjd3H0Gpwm07cHMaZxOHVqnwqmm7aldXr566DS9TrR+gGaLVypChpuF1amOU9xX997DCy+80KVLF+OhVlMrbdGihfm7nPr27Wv9Sajvy53YHvfv3//JJ58sKioqLy+/cuWK7fB69ux55swZc6RXr14qUlZWZvsOk/Zw1KhRa9euveuuu6ylbgbvc33JZraXbD4O9EKcTpqamnrp0iX1MKDpdepT/PCHP/z0008nTZqkLlybBK1Dp9M5XY752GkYLk8RaB2nITm1tb4IG/wkOp3CdpwG//emwWkCDVoPZk7jdOrQOhVONQ3aqV1efr3T68R2coBmiFcqQoabhdWpjm38ueeeO378uOwBb775pmwhRlDVtC3t3bv3tm3b1NseK1as2LRp0yeffHL58uXDhw+PGTNG68TpOD4+fu/evdL5yZMnc3NzbYf3xBNPPProo8bvk+Xk5PjqfuVr6dKl1l/5ctq6xMaNG2NiYjZv3mwtdTN4n+tLNrO9ZPNxoBfidNLZs2e//vrrkhEWFxfPnz8/oOl16lOe91/84hdysG7duoULFxpBbRK0Dp1O53Q55mOnYbg8RaB1nIbk1Nb6Imzwk+h0Cttx2t59tjWdJtC2BzOncTp1aJ0Kp5q2p3Z5+fVOrxPbyQGaIV6pCBluFtYICxX/csV/mj59ekpKiqRlQ4cOPXTokBFUNW1LJcuRjaRVq1ayi8hDyXh27NiRlpYm1W6//fYXX3xR68Tp+LXXXuvXr190dLQkNIsXL7Yd3qVLlx5++OGuXbumpqaqz7PPmTMnoY4cmD9BbG5oflhSUtKyZcvTp09bS90M3uf6ks1sL9l8HOiFOJ30/PnzkyZN6tChg4xw7dq1AU2vbZ/vvfeeRKqrq311g/z617/++9//3meZBK1Dp9P5uRz1M1nbYZgrG5xOEWgdpyE5tbW+CBv8JDqdwnactnefbU2nCbTtwcxpnE4dWqfCqabtqV1efr3T68R2coBmiFcqQkZj/l4R0Hy88cYb3bt316NAQ13l7xUhdJB3ImTw99kRBtq3bx8XF6e+XgBoPP4+O0IIeSdCxrBhww4cOKBHAcDbCgsLMzMz9SjQLJF3ImTMmjXr6aef1qMA4G25ubmTJ0/Wo0CzRN6JkFFQUJCRkaFHAcDbRo8enZeXp0eBZom8EyGjtra2T58++fn5egEAeFVxcXFcXJyfP48ENCvknQglu3btuv766+v9ShEA8IgZM2bMmzdPjwLNFXknQsz48eOnTp1aW1urFwCAx+Tn5yclJfFmJ0IIeSdCTGVlZVZW1pw5c0g9AXjZsWPHEhMTCwoK9AKgGSPvROiR/9yPGDEiOzu7rKxMLwMAD8jPz09ISNi2bZteADRv5J0ISTU1NQsWLJBld9myZRcuXNCLASBMFRcXT58+PSkpiXc6EYrIOxHCjh49OmXKlLi4uIkTJ27ZsqWoqKikpESvBAAhTla2wsLCzZs3jx49Wla8+fPn8zudCFHknQh5paWlW7duldQzIyMjKSkpAgDCS3JycmZmZk5Ozvbt28k4EdLIOwGgISQb0EMAAL9YNwGgIcg7ASBQrJsA0BDknQAQKNZNAGgI8k4ACBTrJgA0BHknAASKdRMAGoK8EwACxboJAA1B3gkAgWLdBABXSktLzQ+1vFMrBQBYkXcCgCu5ubn79u1TD815p8SlVD0EANgi7wQAV8rLy+Pi4lTqqfLON998U+JS+kVVAIAd8k4AcOuWW26JjY01Uk8j78zPz4+Ojs7JydGrAgAsyDsBwK3ly5dHRkZ26dJFUk/JO42ks0WLFvv379erAgAsyDsBwK2amppWrVr17du3a9eukndK0tmhQ4f09HS9HgDADnknAAQgOztbMs4hQ4ZE1MnIyFizZo1eCQBgh7wTAALw7rvvGhmniIqK6tChA58oAgCXyDsBIDApKSlG3tm/f38+UQQA7pF3AkBgli9fbuSd1113HZ8oAgD3yDsBIDDGp4sk7+QTRQAQEPJOAAiY8ekiPlEEAAEh7wTwJdXV1W+88caMGTOGDRuWmpr6+UdogADIK2f48OEzZ87k9xAAmJF3Avg/knFu2LAhPj4+Kytr5cqVBw4cOHnypF4Jn9uzZ48ewudOnDjx1ltvLV26NCMjo0+fPrt27dJrAPAk8k4A/1RYWNivX79Ro0a9//77ehnQCPn5+X379h0/fnxlZaVeBsBjyDsB+Hbs2BEfH//yyy/rBUAwVFVVTZ06NSsrq6KiQi8D4CXknYDXSdKZnJx8+PBhvQAIntra2jlz5owYMaKmpkYvA+AZ5J2Apx05ciQ+Pp6kE9eApJ7Z2dkLFizQCwB4Bnkn4F3V1dVpaWn8eB3XTFlZWUJCwtGjR/UCAN5A3gl41/r16++88049CjSlZcuWTZkyRY8C8AbyTsCjqqurExMT33vvPb0AaEoXLlzo0qXLxx9/rBcA8ADyTsCj8vPzhw8frkeBpjdhwoQtW7boUQAeQN4JeNSDDz747LPP6lGg6UnSOXHiRD0KwAPIOwGPGjJkyNtvv61HgaZXVFSUkZGhRwF4AHkn4FEpKSnFxcV6FGh6p06dSkxM1KMAPIC8E/Coli1bNsU3eG/dunXcuHF69HMREf+35qiDa2Dbtm2dOnVatGhRUVFRQkKCXuxXvQN2igdXk56lSTu3dfXq1aioKD0KwAOu9XIDoJlwmW28++67d999d4cOHWJjYwcNGvSb3/xGr/Flo0aN8vNRZetJrZGg+/rXv/7+++//+7//e1xc3IsvvqgX+1Xv8OqtEBRNepYm7dzJV3JSAF857nzAo9xs/P/4xz/i4+PXrFlz6tSp06dP7969e9KkSXqlQFhPao00K/UOr94KQdGkZ2nSzp18JScF8JXjzgc8ys3Gf//99//0pz/Vo3WkeV5eXlpaWqtWrXx1Pzldvnx5z549O3bseO+991ZUVBjVJP7MM8907949NjZ25MiR6qTGQcSXSaSqqmru3LmJdeRAHhr1Dx06dOutt0onycnJ06ZNM4IaOXvbOkOGDDl48KARNMZ58803G+/XHjlyxH99/wP2UyHoIzdTZ/G5q7xp06YePXq0b99enovz58+ruFZNO7AdqtMza0ysegH4XAzMTBsMAI/gzgc8ys3GLynUhx9+qEfrSPPHH3+8pKTEeLh69eqlS5eeq/NQHSO+fv16qXbmzJnLly9LLmLNdbRhLFq0SLK6yjrS4VNPPWXEe/XqtXPnzosXL8p4JG5uorl06dKSJUsGDhxoPJT+Z8+e/cEHH0jbVatWDR48+MvV9fr1DtipQtBHbmZ9svxXXrhw4fHjxyXjnDVrlly+imvVtAPboTo9s9oLQPEzMDPrFQHwAu58wKPcbPwtW7aUNEKP1tGa9+vXT72vdvbs2eTkZON4wIAB8lBVs+Y6Wj+S+qj6ktvJQ+NYMuB169apN9v8k8xJfWzF3L/Eo6Oj1UNzXNWvd8BOFYI+cjPbJ8tN5dLS0tTUVGvc/FAd2A7V6Zm1HZLBaWBmfpoDCGPc+YBHudn4u3bteuzYMT1aR2seExMTYRIZGaniV69eVdWsuY7WT5s2bdSn7Kurq+Whcbx3796hQ4dKHnzDDTe8+uqrXzT43MmTJ2fOnJmZmZmQkCCtnPpXD53q1ztgpwpBH7lZvcM2MwfNI3GaCnVgO1SnZ1brzc3AzOqtACAscecDHuVm4x83bpz6ebFGa963b1/rj1xFamqq+R1T1UodtGjRwvx1Tr169Tpz5oxxXFZWpt41NFy8ePGFF17o0qWLOWjo37//k08+WVRUVF5efuXKFeuJtIdO9esdsFOFoI/crN5hm5mDUq13797GcXR09GeffaaKrJdm0Ibq9MxqrdwMzKzeCgDCEnc+4FFuNn5JIzp27Lh69WpJpCSpeu2117KysowirfmKFSs2bdr0ySefXL58+fDhw2PGjDHis2fPfv311yWzLC4unj9/vjXXkaxo27Zt6h3ERYsWLV261Ppbks8999zx48cloXnzzTclEzKCZvHx8Xv37pUKJ0+ezM3NtZ5Ie+hUv94BO1UI+sjN6h22mQTfeeedqqqqc+fOLVu2bOzYsUZ88ODBa9eulfgHH3wgV2G9NNuhOj2z2qndDMys3goAwhJ3PuBRLr83/uDBg9nZ2e3atYuOjh44cOCSJUuMuJY3SFc7duxIS0uLiYm5/fbb1ddknj9/ftKkSR06dJA8RpIea64jOZwUtWrVShIXX92nwufMmZNQRw7Up8KnT5+ekpIinQ8dOvTQoUNG0Exy4n79+skgJZFdvHix9UTaQ6f69Q7YqULQR25W77DNJDhy5Mi2bdumpqZK3nnx4kUjfuTIkUGDBkn8xhtvlFzfemm2Q3V6ZrVTuxmYwvfGA57lb2kAEMb4O5nhyn/O1xzwdzIBz2ruyxOAJjJkyJC3335bjyL0Nf+8s6ioKCMjQ48C8IDmvjwBaCIPPvjgs88+q0eBprdly5aJEyfqUQAeQN4JeFR+fv7w4cP1KND0JkyYIKmnHgXgAeSdgEdVV1cnJia+9957egHQlC5cuNClS5ePP/5YLwDgAeSdgHetX7/+zjvv1KNAU1q2bNmUKVP0KABvIO8EvKu6ujotLe3ll1/WC4CmUVZWlpCQcPToUb0AgDeQdwKeduTIkfj4+MOHD+sFQLDV1tZmZ2cvWLBALwDgGeSdgNft2LEjOTmZ1BNNSpLOOXPmjBgxws1fKwAQrsg7Afwz9YyPj+cH7mgiVVVVU6dOzcrKqqio0MsAeAl5J4B/Kiws7Nev36hRo95//329DGiE/Pz8vn37jh8/vrKyUi8D4DHknQD+T3V19YYNG+Lj47OyslauXHngwIGTJ0/qlQAXTpw48dZbby1dujQjI6NPnz67du3SawDwJPJOAF8i2ecbb7wxY8aMYcOGpaamRgCBk1fO8OHDZ86cuX//fv0VBsDDyDsBoCEimv2fQQeA5oZ1EwAagrwTAALFugkADUHeCQCBYt0EgIYg7wSAQLFuAkBDkHcCQKBYNwGgIcg7ASBQrJsA0BDknQAQKNZNAHCltLTU/FDLO7VSAIAVeScAuJKbm7tv3z710Jx3SlxK1UMAgC3yTgBwpby8vFOnTir1VHlnXl5eXFyclH5RFQBgh7wTANy68cYbY2JijNTTyDs3btwYHR2dk5OjVwUAWJB3AoBbeXl5km527NhRUk85kKQzMjIyKiqKv0IOAG6QdwJAAGJjY1u3bt2pUyfJOyXp7NWrV3p6ul4JAGCHvBMAAjB16lTJOCX7jKgzYsSINWvW6JUAAHbIOwEgAKdOnWrRooWRdHbt2rVTp058oggAXCLvBIDA9O/f38g777jjDj5RBADukXcCQGCMTxeJ3r1784kiAHCPvBMAAmb8fiefKAKAgJB3AkDAjE8X8YkiAAiITd559erV//iP/5gKAHBw7733St45ceJEvQAAUEeSSUkptSTTJu+cO3eu8atLAAAAQMNISqklmTZ5Z+fOnfV2AAAAQCAkpdSSTJu8MzIyUm8HAAAABEJSSi3JtMk7e/furbcDAAAAAiEppZZk2uSdO3fujImJ0ZsCAAAA7kgyKSmllmTa5J2ipKTkt7/97VYAQOPI4quHACDcSRopyaSeXzrlnQCAoJC8Uw8BgFexIAJAEyLvBACFBREAmhB5JwAoLIgA0ITIOwFAYUEEgCZE3gkACgsiADQh8k4AUFgQAaAJkXcCgMKCCADBVFpaan6o5Z1aKQB4CnknAARTbm7uvn371ENz3ilxKVUPAcBryDsBIJjKy8s7deqkUk+Vd+bl5cXFxUnpF1UBwGPIOwEgyG688caYmBgj9TTyzo0bN0ZHR+fk5OhVAcBLyDsBIMjy8vIk3ezYsaOknnIgSWdkZGRUVNT+/fv1qgDgJeSdABB8sbGxrVu37tSpk+SdknT26tUrPT1drwQAHkPeCQDBN3XqVMk4JfuMqDNixIg1a9bolQDAY8g7ASD4Tp061aJFCyPp7Nq1a6dOnfhEEQCQdwJAk+jfv7+Rd95xxx18oggAfOSdANBEjE8Xid69e/OJIgDwkXcCQNMxfr+TTxQBgIG8EwCaivHpIj5RBAAG8k4A10hFRcX27dtzcnIyMzOTk5ONn0EjPCQlJWVkZEycOHHr1q38DXoATsg7ATQ5yTjnz58fFxc3evTozZs3FxYWlpSU6JXC1J49e/RQOJIntKioaMuWLZJ6yhM9ZcqUo0eP6pUAeB55J4CmVVBQkJSUNH369OLiYr0M4ejChQvLli1LSEhYsGBBTU2NXgzAw8g7ATShbdu2Sf6Rn5+vFyDclZWVZWdnjxgxoqKiQi8D4FXknQCaSkFBQWJi4rFjx/QCeENtbe2cOXOysrIqKyv1MgCeRN4JoElUVFQkJSXxTqfHSeo5derU8ePH6wUAPIm8E0CTmDdv3owZM/QovKeqqur666/ftWuXXgDAe8g7AQRfRUVFXFwcHySCIT8/v0+fPrW1tXoBAI8h7wQQfHl5eaNHj9aj8LCMjIyCggI9CsBjyDsBBN/kyZNzc3P1KDzs6aefnjVrlh4F4DHknQCCLzMzs7CwUI/Cww4cODBs2DA9CsBjyDsBBF9iYuKpU6f0KDysuLg4JSVFjwLwGPJOAMEXFRV19epVPepCRIS/Rcl/aXOmRh66l9BINTU1LVu21KMAPMajKyCAJuUnuyoqKrruuuu0rFQeSvDdd981B/3w078bjWzeANf+jM0QkwCAVQBA8PnPMG6++ebXXnvNHNmzZ88tt9xijvjnv/96NbJ5A1z7MzZDTAIAVgEAwec/w/j5z39+zz33mCPjx483Pv+uGh46dOjWW2+NjY1NTk6eNm2aETRKI77MKOrZs2fbOkOGDDl48KCqn5eXJ2mu9DNo0KAjR47YNr969ery5culh44dO9577722f0/c6CotLa1Vq1Y+v02cRmI90IZhsG1uduXKlccee6xbt27du3d/5plnfHVfzD537tzEOnIgD42a0u38+fOl5nXXXffLX/7y0Ucf7VZHfYW7VNi0aVOPHj3at28vV3H+/HkVN1+sz2FUts+RH+bLBOBNrAIAgs9/hnHhwoXOnTufPXvWeCgH8lCCPlPDXr167dy58+LFix9++OHSpUuNoCp16v/SpUtLliwZOHCg8VCqzZ49+4MPPpB+Vq1aNXjwYBX/oo3Pt3r1ajnFuToP1TGXGqTJ448/XlJSYjyst4l1JNqB8qtf/eoHP/iBFtSamy1evPiRRx6RTPfEiRNjx46VyKJFiyQBrawjo3rqqaeMmnIuOT5z5sxLL70UGRkpx2VlZS+//LIklKrCwoULjx8/LhnnrFmzZK5U3HyxijYq2+fID+u1A/AaVgEAwVdvhjF16tS1a9cax2vWrHnggQeMY9UwMTFx3bp12luPfrI3RdKgqKgo49hcTeLR0dHWuOjXr596q0+S4OTkZHOpoQFNbEei9XPo0KFRo0ZduXLFHDSYm5v17t1b0kdzRPI/lcRLlikPjWN1rs8++0zyTnWsPt9jHkxpaWlqaqo1rjGPyvY58sNPtwA8glUAQPDVm2H88Y9/zMjIMI4HDhz41ltvGceq4d69e4cOHSoZ0g033PDqq69qpVr/J0+enDlzZmZmZkJCQps2bZyqOcVjYmIiTFSKZuaySb0jMfdz+vTprKws+VdFnJqbSVz7VJZEampqjOPq6mp5aBybm9sem4NODX3Oo7J9jvywvRwAnsIqACD43GQYaWlphw4dOnjwYHp6ugpqDS9evPjCCy906dJFK23RooXKtET//v2ffPLJoqKi8vLyK1eu2OZV5oda8759+1p/pqzRunJqUu9I1IGUjho16vDhw8ZDg1Nzs549e545c8Yc6dWrl4qUlZVZ3+90OjYH5Yy9e/e2xn31jUp7jvywvRwAnsIqACD43GQYK1eufPjhh3/wgx+sWrVKBVXD55577vjx45LlvPnmm5LkaaWSIW3btk297RcfH793716pfPLkydzcXNu8yvxQa75ixYpNmzZ98sknly9flkRwzJgxX7T5nNaVU5N6R6IOHnrooby8PONYcWpu9sQTTzz66KPG73fm5OT46n6/c+nSpba/36la2R7LwTvvvFNVVXXu3Llly5YZvy2qVfY5j8r2OfLD9nIAeAqrAIDgc5NhnDlzJiEhQXIa87t3quH06dNTUlJiYmKGDh166NAhrfT111+XRKdVq1bSXB6+9tpr/fr1i46OloRy8eLF1iRPe6g1r6mp2bFjR1pampzu9ttvf/HFF82tDFpXTk3qHYn5wMx/c7NLly5Jvt61a9fU1FT1efY5c+Yk1JED8+fZVSvbYzkYOXJk27ZtpSvJOy9evGit7HMele1z5Ift5QDwFFYBAMHX4L9XhGvpWiaC/L0iAD7yTgBNgb/PHhKuZd7J32cH4CPvBNAUMjMzCwsL9Sg87MCBA8OGDdOjADyGvBNA8E2ePNn4+0OA4emnn541a5YeBeAx5J0Agi8vL2/06NF6FB6WkZFRUFCgRwF4DHkngOCrqKiIi4srLi7WC+BJ+fn5ffr0qa2t1QsAeAx5J4AmMW/evBkzZuhReE9VVdX111+/a9cuvQCA95B3AmgSFRUVSUlJ+fn5egG8pLa2durUqePHj9cLAHgSeSeAplJQUJCYmHjs2DG9AN4gSeecOXOysrIqKyv1MgCeRN4JoAlt27YtISGBdz09qKysLDs7e8SIERUVFXoZAK8i7wTQtAoKCpKSkqZPn87HjDziwoULy5Ytk/9vLFiwoKamRi8G4GHknQCaXEVFxfz58+Pi4kaPHr158+bCwsKSkhK9EkKZPKFFRUVbtmyZOHGiPNFTpkw5evSoXgmA55F3ArhGJPvcvn17Tk5OZmZmcnJyBMJIUlJSRkaGJJ1bt24tLS3Vn3sAqEPeCQBNKOIa/g10AGjmWBABoAmRdwKAwoIIAE2IvBMAFBZEAGhC5J0AoLAgAkATIu8EAIUFEQCaEHknACgsiADQhMg7AUBhQQSAYNK+vVLLO/luSwBeRt4JAMGUm5u7b98+9dCcd0pcStVDAPAa8k4ACKby8vK4uDiVeqq8UyISl9IvqgKAx5B3AkCQ3XrrrbGxsUbqaeSdcty6deucnBy9KgB4CXknAATZvHnzIiMju3btKumm5J3yb0xMTIsWLfbv369XBQAvIe8EgCC7dOlSVFTUkCFD4uPjJe+MqZOWlqbXAwCPIe8EgOAbMWKEZJxjxoyJqNOvX781a9bolQDAY8g7ASD4/vSnPxkZp6F9+/Z8oggAyDsBoEkYP2QXPXr04BNFAOAj7wSAJjJv3jwj70xOTuYTRQDgI+8EgCZifLpI8k4+UQQABvJOAGgqxqeL+EQRABjIOxGG9u3bFxsb+/knOgDA69QfMgC+WuSdCDeytsbHx7PCopnYs2ePHgKuORZGNBPknQgrrK0AYIvlEc0BeSfCB6sqAPjBIomvHHknwgTrKQDUi6USXy3yToQDVlIAcIkFE18h8k6EPNZQAAgIyya+KuSdCG2sngDQACye+EqQdyKEsW5qIiJs7mjbYHPW3AbcrMajBtOsRuVGyA3YC1hCce2xECBUuV8xtQ3vyJEj2dnZ7dq1i42NHTx4cNh/vSL7fSM1qwlsVoPxuGv8XDTgdHfffbcsdN27d3/llVf0ss+5X0iBoAj4dQw0Bw1eKw8fPiwNt27devbs2dOnT+/evXvGjBl6pfDSgO0KZs1qApvVYDzuGj8XDTjd5s2bP/30U1nlunXrppeZNHg5BRog4Ncx8JULdJU0r9e33XabJJ2mwi8UFxffcccdX/va1+TfkpISIyhtZ82alZCQIAv3s88+K0lqfJ28vDxVYe7cuV26dElLSzty5IgKVldXf//734+OjjYi3bt3l+OUlJRf//rXRsTswoULRs8ZGRlvvvmmrxGDMQ7Kysq+/e1vt23b9qabbjJfvv9hmEmfqampHTp0mDBhghFxGpJqYhxfuXJl0KBBV69elWP5V44lIsdnzpwZM2ZMu3bt0tPTDxw4oJo89dRTycnJchUvvfSSuR/jwDyN1iE5sda0PZHPbkKsz4Uaz+LFi+fPn28cW09hZjtXZtql2U6Oz2545slRB4oR8dk1NLMdXoTdK9l2YNrgfXan8zONTme3PkG2Z/c/87ZNbDs3067IthPtvNZpt06CKjIfa+fyOTTUBqydzs0IlY8//jgxMdEcsQp0UQUa7Iu7AggJlZWVsj6uWLFCL3AgS3mnTp3UQ0nFJCczlX/hu9/9rqz1sl8uXLhw3LhxRlBW+fXr13/yySe7d++OjIzcuHGjHL/66quyJagKstyfP39+1apV3/jGN1Tw+eef105UW1t76NAhyRrNQcO0adPkij799NMTJ06MHTvW14jBGAeTJ09+9NFHpcOPPvpIBQ1+hmHWsWNHST4qKiqWL19uRJyGpJqo45kzZ+7atUsOZJyPPPKIEfze9773q1/96vLly7///e8lF1FNNmzYIFfxyiuvyL6rgurAPI3WITmx1rQ9kUGbEOtzYYxHms+ZM0e1sp7CzHauzLRLs50cgzY88+R8UcnnW7NmzX333WeO+HmibYdn+0q2HZibl7fTNPqcz259gmzP7n/mbZvYdm7m5umwnld7CnyWSTBXcHpVG6wNrQM29+ZyhKK8vPyb3/zmunXrVMSJPF8R7ugtgUDwAkLocf9fc1ltZc01L/ExMTGnT582VfmCrNqy6crBuXPnVKqqFtnq6mrbY3UgW2y7du20oOHDDz+cMGFCjx49JOu1XbW7dOly6dIlc6SRg+natavsN1qw3mGY3XLLLd/61re2bt1qDMNX35DMx2+//fZ3vvMdORgzZszBgweNYFxc3D+3rDotW7bUmthehTZI65CcWGvansh2QqzPhRRt27ZNUnlz0HoKM9u5MtMuzXZybIdnPfDV/fbIwIEDL168aDy0bWhmOzxV0/xKth2Y1qft6Wyn0Tjwf3bzE2R7dv8zb9vEtnMzLWjbyf9n796joyjTxI8nJIRAuEnIhQSChEtIVBJFhkuUc0QWMu7MMuhGCRKGdQEdCSywo7tyGxiIUQEBuY1hXVAHGJhzmNEVwSAsh3hAFwYShYWzOMskGYIGQkhMAiEh+b2b+lkWb1dVd1JdSV++nz88VU+9VfXW20/V+9ikux3Pq91LdxC0DXSDTc521L0vmlzuodCrVy9RoaqrRlx/qEr9B1qKBIJXcvEpKdpcuXJFGxkzZsz27du1EZWYDsVE2NQ8HYqHtRLUnTm0y+qCqPPE6aSgIj4+fu3atZcuXbp165buU1tM0mKTNmKxM6JuENWDFHTaDa2amprf/va3f//3fz98+HAlYtSlhoYGdVlZEJKSkv7rv/5LFENqRFQYjhW/+VVInXTskhHHlron0h0Qx9dCbPr5z38urujatWtq0PEUWrpjpSVdmu7g6HbPcUG80GKcCwoKlNUmgx21dLunttRmsm7HpGPqnk53GJUF87Nrl3XPbj7yurvoHlzLlZfD8bzavXQHIUDv7nBl9HQ7rA262MMmh9PpcvFxqnDlgIAJEgjeypVnZXR09Mcff9zY2Kh+nPP48ePh4eE7duwQk+vVq1cPHjyYmpqqbJo0adLy5cvFLL5s2TLlXwabDCYA7bJY+Prrr6urqxcuXJiZmenYsqn5LYc//elPVVVVe/bs0X1qP/vss7m5ubW1tUVFRcpBWt0ZZeHxxx9ft26dOOPvf/97Najbjc8++ywuLk5Z1vrVr35VUVEhqhn1HSndLsXGxn700UeigNi6dau2SytXruzbt29OTo4aefrpp5csWXL9+vXLly/PnDlTCZpfhTRWjl1yvfO6J9IdEMfXQtl07Nixn/3sZ/X19Uozx1No6Y6VlnRpuoOj2z3HBdHJzZs3K8sK3R21dLsXoJfJuh2Tjql7OqNhbDI+u7KgXdY9u/nI6+6ie3AtV14Ox/P269dPfTtfdxB07w5XRk+3w9rTudhDV7jyINXSHUDAdSQQvJjTJ+Yf/vAHUZd07dr1iSeeUIN5eXnjxo2LiIgICQkZNmzYqlWrlLiYIB977LGwsDDx35KSEiWoOwFol8XC8OHDu3Tp8uMf/1h9B0J6NL/33nvhzV566SXdp7YogqdOnSpmoEGDBokpqslCZ5SFs2fP3n///WL6ycrKUoO63fjjH/8oTq0sa4lgz549Y2Jidu7cqUR0u7R7927xEvTp00dUEtouXbp0KSgoSG3W1PxRpylTpohrTEhIEBWJEjS/CmmsHLvkeud1T6Q7II6vhbqpsLBQ1NPKsuMptHTHSku6NN3B0e2e7oLKZEct3e4F6GWybsekY+qezmQYjc6uLGiXdc9uPvK6u+geXEsK6h7E8bzi8SKuulfzW7a6g6B7d7gyerod1p7OxR5qd9fl9BHqyPyAgFMkELxbK56b7uXtT+F/+7d/27Jlixz1El7deU/j7ZmMlmrdw5M8gUUkELxe656e7uLtT+HXX3/9yy+/lKNewqs772m8PZPRIq1+bJInsIgEgi9o9TMUAPyNlQcmdScsIoHgI6w8SQHAT1h8VFJ3wiISCL7D4vMUAHyb9YckdScsIoHgU6w/VQHAJ7nl8UjdCYtIIPgatzxbAcCXuOvBSN0Ji0gg+CDxbA0LCwsAADQTj0TrRWcTdScsI4EAwEbM0/Al5DMsIoEAwEbM0/Al5DMsIoEAwEYuztM7dux46qmn5CjgYVzMZ8AICQQANpLm6aKiovT09PDw8G7dumVkZLz//vtKfMKECVeuXNG2BDwQdScsIoEAwEbSPD1ixIiNGzdWVlZWV1cfPnw4LS1NuxXwcNSdsIgEAgAbSfN0jx49Ll68qI0omM7hFUhUWEQCAYCNpHl606ZNffr0ycjIeOONN77++ms1znQOr0CiwiISCABs5DhPl5aWbtu2LSsra9iwYe+9954SdGwGeCASFRaRQABgI5N5uqysrFu3bsqySTPAc5CosIgEAgAbSfN0amrqwYMHy8vLKysr165d+/jjj+s2AzwTiQqLSCAAsJE0T69ateqRRx4JDQ2NiIiYMmVKaWmpbjPAM5GosIgEAgAbMU/Dl5DPsIgEAgB3Ut/CVEjztLQV8C7UnbCIBAIAd8rNzT169Ki6qp2nRVxsVVcBr0PdCYtIIABwp/Ly8l69eqmlpzpPHzhwIDw8XGz9oSngbag7YREJBABu9tBDD3Xp0kUpPZV5+oMPPggJCcnMzJSbAl6FuhMWkUAA4GabNm0KDAwMDw8XpaeYp0XRGRwc3KFDh2PHjslNAa9C3QmLSCAAcL9OnTpFR0f37t1bzNOi6IyIiEhKSpIbAd6GuhMWkUAA4H6TJ08WM/TAgQMDmj388MPr16+XGwHehroTFpFAAOB+X3/9dWBgoFJ0durUqWfPnnyiCD6AuhMWkUAAYIv4+Hj1zU4+UQTfQN0Ji0ggALDFpk2blLrz3nvv5RNF8A3UnbCIBAIAu3Tq1EnM03yiCD6DuhMWkUAAYBfl00V8ogg+g7oTFpFAAFqvvr7+0KFDs2fPHj16dFxcnPLPyoBTIlvGjBkzZ84c/gLBuwRQd8IaEghAa4iKc/PmzZGRkampqWvWrDlx4kRxcbHcCM0/jymH0NRUVFR0/Pjx7Ozs5OTkwYMH79+/X24Bj0TdCYtIIAAtVlBQMHTo0AkTJpw9e1beBrRQXl7ekCFD0tPTa2pq5G3wMNSdsIgEAtAy+/bti4yM3Lt3r7wBaK26uroZM2akpqZWVFTI2+BJqDthEQkEoAVE0RkbG3v69Gl5A2BNY2PjggULxo4d29DQIG+Dx6DuhEUkEABXnTlzJjIykqITNhGlZ1pa2tKlS+UN8BjUnbCIBALgkvr6+sTERP55HbYqKyuLioo6f/68vAGegboTFpFAAFyyadOmiRMnylHA3XJycqZPny5H4RmoO2ERCQTAufr6+ujo6K+++kreALhbVVVV7969r1y5Im+AB6DuhEUkEADn8vLyxowZI0cBe0yZMmX79u1yFB6AuhMWkUAAnHv++efXrl0rRwF7iKIzIyNDjsIDUHfCIhIIgHMjR478/PPP5Shgj8LCwuTkZDkKD0DdCYtIIADO9e3bt6SkRI4C9vjmm2+io6PlKDwAdScsIoEAOBccHOz2b/N2ywTmloO0DS/qakuZXJrJJhN37twJCgqSo/AArXtBARUJBMA5Vyabq1evzpgxIzIyMiws7Cc/+cmWLVvkFndz5Zi+pBXX24pdfIY/X7sn43WBRSQQAOdcmWyeeOKJJUuWXL9+vbq6+vDhw2lpaXKLu7lyTF/SiuttxS4+w5+v3ZPxusAiEgiAc65MNmFhYRUVFXK0+d9MX3vttfj4+J49ez7zzDNqG/WYRg1u37790ksv9enTp3///q+//rpuRD1IXV3dwoULo5uJBbGqxEWD3bt3P/zww6J7w4cPP3PmjBIXxBm7NBs5cuTJkyfVuErsu3Xr1gEDBnTv3l10rLKyUo2LYyYmJnbs2LHJ+NTiukQnRVfFqcePH692VRpMdVW6uoC7NRmfSMuVNqdOnXr00UdFr2JjY2fOnKkEjV6FAM3FiqP96Ec/Uo8jlpXjG12CdpMrHdNSd4RH4XWBRSQQAOdcmWxEKfPyyy+fOHHi5s2b2vi6deuys7NvNHuhmRJXj2nUYOXKlXPnzhUFUFFR0ZNPPqkbUQ+yfPlyUejUNBNHW7FihRIXDebNm3fu3Lnq6uo333xzxIgRSlxVW1u7atWqYcOGSfGm5n2XLVt26dIlUXFmZWWJ46hxcaWXL19WVo1OvWnTJtHs6tWrt27dEnWt2lVpMNVVk6tTGJ2opW0GDhz4wQcfiAG5ePGiaKMEjV4F6WKffvpppXYvKChQv+rIlUtwpWNarqQc2h6vCywigQA458pk89e//lUUIj169OjYsePjjz+u/rjR0KFD1XcKr127FhsbqyyrxzRqMGjQoLKyMmXZKKIeRNRSYl9lWZR6YlVqIIhKKyQkRF3VxnU/xaLdt7S0NC4uzjHeZHzq+++/X403afYyqjtNrk5hdCItV9pER0dv3LhRenPa6FWQ+rBr1y5RhoqFV155Zc+ePVIbk0twpWNarqQc2h6vCywigQA45/pk09jYeOHChcWLF4uqS4l07tw5QCMwMFCJq8c0ahAaGnrnzh1l2SiiHkRsUj9xX19fL1alBtJqcXHxnDlzUlJSoqKiRGOpmUIbNDmm0anFdWl7q+5l1CWTq1MYnUjLlTZHjhwZNWpUcHDwAw888NFHHylBo1dB6oOoTQcPHixe5aSkpKqqKqmNySW40jEt6bzwELwusIgEAuBcSyeb2trabt26KctDhgxR/5VWSz2mUYP4+PirV6+aR9SDDBw4UN1UVlam+36ndvW+++5bsmRJYWFheXn57du3dS9QGxTNBg0a5BhvMj51XFycGAe1mbpXSEiI9k8R1Ljj1XXo0EH79VVGJ9JypY2iurr6nXfe6d27t7Jq9Co4jsyECRM2bNjwxBNPqBGTS3D6AhlxPC88Aa8LLCKBADjnymSTmpp68OBBUZ999913mzdvnjJlihJfvXr11q1br1+/fuvWrdOnT0+ePFmJq8c0avDKK6/Mnz9f+WPBzMxM3Yh6kOXLl2dnZzv++aBR3RkZGXnkyBFRcRYXF+fm5upeoAh+8cUXdXV1N27cyMnJUf5gUYlrmxmdet68eZ988okoHEtKShYvXqzuNWLECFG3icOeO3dOtFHjjlcnKt2dO3eq7yAanUjLlTZvvfXWpUuXxLV/+umnotxUgkavguPIbNmypXPnztu2bVMjJpfg9AUy4nheeAJeF1hEAgFwzpXvjV+1atUjjzwSGhoaFRX13HPPqX8+KHbct29fYmKiKFbGjRv37rvvKnF1AjNqUFtb++KLL0ZERMTFxSkfjnaMqAcRZdyCBQuimokF7efZlQVpVZTIQ4cODQkJEbXdypUrdWdTERw/fnyXLl3E6UTdWV1drca1zYxOXVlZOXXq1B49eojaThSa6l5nzpwZPny4OOyDDz4oyko17nh1omwV+3bs2FFUySYn0nKlzaxZs/r27StGe9SoUadOnVKCRq+C48hcvnxZ5MO3336rRkwuwekLpIvvjfdYjvkAtAgJBMA5//ydTKbY9sLvZHosbgpYRAIBcG7kyJGff/65HPV1TLHtpbCwMDk5WY7CA3BTwCISCIBzzz///Nq1a+UoYI/t27erXw4Kj0LdCYtIIADO5eXljRkzRo4C9pgyZYooPeUoPAB1JywigQA4V19fHx0drX4VPGCfqqqq3r17X7lyRd4AD0DdCYtIIAAu2bRp08SJE+Uo4G45OTnTp0+Xo/AM1J2wiAQC4JL6+vrExMS9e/fKGwD3KSsri4qKOn/+vLwBnoG6ExaRQABcdebMmcjIyNOnT8sbAHdobGxMS0tbunSpvAEeg7oTFpFAAFpg3759sbGxlJ5wO1F0LliwYOzYsU5/oQDtiLoTFpFAAFpGlJ6RkZH8gzvcqK6ubsaMGampqerPXMEzUXfCIhIIQIsVFBQMHTp0woQJZ8+elbcBLZSXlzdkyJD09PSamhp5GzwMdScsIoEAtEZ9ff3mzZsjIyNTU1PXrFlz4sSJ4uJiuRFgoKio6Pjx49nZ2cnJyYMHD96/f7/cAh6JuhMWkUAAWk9Un4cOHZo9e/bo0aPj4uICANeIbBkzZsycOXOOHTsmZxU8WAB1J6whgQDARszT8CXkMywigQDARszT8CXkMywigQDARszT8CXkMywigQDARszT8CXkMywigQDARszT8CXkMywigQDARszT8CXkMywigQDARszT8CXkMywigQDAnUpLS7Wr0jwtbQW8C3UnLCKBAMCdcnNzjx49qq5q52kRF1vVVcDrUHfCIhIIANypvLy8R48eaumpztOi4gwPDxdbf2gKeBvqTlhEAgGAmz300EOdOnVSSk9lnv71r38dEhKSmZkpNwW8CnUnLCKBAMDN/vjHP4rpuXv37qL0FAui6AwMDAwKCuK3yOHtqDthEQkEAO4nis4OHTr06NEjoNl9992XlJQkNwK8DXUnLCKBAMD9XnjhBTFDBwUFKXXn448/vn79erkR4G2oO2ERCQQA7nft2rUOHTooRee99957zz338Iki+ADqTlhEAgGALR588EGl7vzJT37CJ4rgG6g7YREJBAC2+OMf/xgYGCjm6SFDhvCJIvgG6k5YRAIBgF26d+8u5mk+UQSfQd0Ji0ggALCL8ukiPlEEn0HdCYtIIMBflJaW7tixIyMjIzk5OSYmRvnTQ8BnxMbGpqSkZGZm7tq1q6KiQr4B4A4B1J2whgQCfN/58+enT58eHh4uis7t27cXFhZevnxZbgR7HDhwQA7BHiKrCwoKtm3bNmnSJJHtixcvpvp0O+pOWEQCAb6soaFh6dKlUVFROTk5VVVV8mbAR5WUlMyaNSsmJiY/P1/eBguoO2ERCQT4rIqKirFjx6alpZWVlcnbAD+Ql5cn/qdr586d8ga0FnUnLCKBAN9UU1OTmpq6YMGCxsZGeRvgNy5cuBAdHc27nu5C3QmLSCDAN6Wnp8+YMYOiE8jLy4uJieFvPd2CuhMWkUCAD9q/f39CQkJdXZ28AfBLs2fPXrRokRxFy1F3wiISCPA1jY2NgwcPzsvLkzcA/qqkpCQ8PJy3PK2j7oRFJBDga/Lz85OTk+Uo4N8mTZq0e/duOYoWou6ERSQQ4GuysrJeffVVOQr4t9zc3GnTpslRtBB1JywigQBfM3r06BMnTshRwL8VFBSkpKTIUbQQdScsIoEAX9O3b9+SkhI5Cvi3b775Jjo6Wo6ihag7YREJBPia4ODghoYGOepW6txTUFAwcODAsLAwbdBuO3bseOqpp+To99RutFl/TLS0Dy1t3wY8sEutc+fOnaCgIDmKFvKZfEB7IYEAX2M+MRQWFvbr10/MwdqgWBXBL7/8Uht0RWpq6pEjR+SozSZMmHDlyhU5+j3Hy3eMtJmWnrql7dtAm3VJnOiFF16QIuqCRImLjP3pT3/ao0cP8X8+w4cP/93vfvfDznrUHdFqjCEsIoEAX+N0Ynj44YcPHjyojRw4cOBHP/qRNuKinj17yqH25nj5jpE209JTt7R9G2izLokTTZ48+dSpU9qItKD117/+NTIycv369d98882333778ccfT506VW50N93joEUYQ1hEAgG+xunE8Jvf/Obpp5/WRtLT03Nzc5ua3/h87bXX4uPjRUH5zDPPqN93KI65e/fuxMTEjh07KqvKf1VqULh9+/ZLL73Up0+f/v37v/7660pQHLNLs5EjR548eVIJajnuJZ3UqG8iLtqLvcLCwsaPH692w7GTSqSurm7hwoXRzcSC7rfri5MWFhY2Nf8hQVJSkry55Z1pMhgBk/Yqx5ExuoSA5hET/1+hvP935syZuw70fZutW7cOGDCge/fuoueVlZVqXGomLYiK8NFHHxVHjo2NnTlzphI0GgelJ+pr12Rw+Vpil4sXL4pTqD+y5dgHrX/4h3/49a9/LUdN6R4HLcIYwiISCPA1TieGqqqqXr16Xbt2TVkVC2JVBMXyunXrsrOzbzR7oZnSRhzz5Zdfvnz5sroqLWiXV65cOXfuXFGCFBUVPfnkk2oDoba2dtWqVcOGDdMGFY57SSc16tumTZtEs6tXr966dUsUNI59kwZk+fLlonqraSYOuGLFCu1WxZIlS9544w2xsGbNml/96lfy5pZ3RiWNgNP2TXojY3QJYvd58+adO3euurr6zTffHDFixF0H+r7NsmXLLl26JCrOrKws0V6NS82khYEDB37wwQfiyKI6FCdVgkbjIL12KpMEUE70y1/+ctu2bdqIdkFL1NyiJ3LUlO5x0CKMISwigQBf48rEMGPGjA0bNijL69evf+6555TloUOHqm+AiXo0NjZWWXZalGiXBw0aVFZWpsYlonDR/XiH417SSY36dv/996s1dJNe36TjiPpJbS8KPrGq3aooKCgYP368WJg4ceLZs2flzS3vjJZ2BFxp7zgyRpeg3V2cJSQkRF1VaduUlpbGxcU5xrWr6oKo8zZu3Cj95I/ROOheiMIoAZRdxNGSkpLKy8vViLKgpQSDg4NFFfv93i4x6RVcxBjCIhII8DWuTAyfffaZ+ptGw4YNO378uLLcuXNn7QQfGBioxKVjqqvauLocGhoqfW6puLh4zpw5KSkpUVFRYqtuDx33kpoZ9U3EtTs69k06jjiR+nn/+vp6sardqnrggQdEjTV8+HB5Q7OWdsZoBIzaazmOjNElSLvrHk0bdGVfdeHIkSOjRo0S1Z4YmY8++kgJGo2DdDSjy9dSg7m5ucr7po590IqIiLhw4YIcNaV7HLQIYwiLSCDA17g4MSQmJp46derkyZPav18cMmSI47+NNjkcU7cgUJfj4+OvXr2qxoX77rtvyZIlhYWF5eXlt2/f1u2h415SM6O+xcXFad/3cuxbhw4dtF8sNXDgQPVEZWVluu93Cv/6r//6L//yL8uWLZM3NGtpZ4xGwKi9luPIGF2C0ctkFBSdGTRokLIcEhJy8+ZNdZPjMCqqq6vfeeed3r17K6tG4yDtZXT5WmpQFNkPPfSQSE6jPiieeuop3b+RMKF7HLQIYwiLSCDA17g4MaxZs+bFF1/8xS9+8eabb6rB1atXb9269fr167du3Tp9+vTkyZOVuFFBo42ry6+88sr8+fOVv0fMzMwUkcjIyCNHjoiCo7i4ODc3V7eHjntJzYz6Nm/evE8++URUliUlJYsXL3bsmyitdu7cqb5luHz58uzsbMc/jpSIuic0NPSrr76SNzRraWeMRsCovZbjyBhdgtHLJAW/+OKLurq6Gzdu5OTkqH+AO2LEiA0bNoj4uXPnRK8ch/Gtt966dOmSuIRPP/1UlJtK0GgcpFMbXb6WNvif//mfI0eOdOyDlqhie/bsuW7dOlF5iyr84MGDqampcqO76R4HLcIYwiISCPA1Lk4MYqqOiooSBYH2vTRRAO3bty8xMbFz587jxo179913lbhRQaONq8u1tbWioo2IiIiLi1M+fy1qgqFDh4aEhIgScOXKlbo9dNxLambUt8rKyqlTp/bo0UMUQ6JycuybKOzEpo4dO4qLbWr+MPiCBQuimokF3c+zNzWPjziXHP1eSztjNAJG7bUcR8boEoxeJik4fvz4Ll26iKOJurO6ulqJnzlzZvjw4SL+4IMPijLdcRhnzZrVt29fcb2jRo1Sv+3IaBykUxtdvpYUFAWxYx8kJ0+eTEtL69atmzjysGHDVq1aJbe4m9Fx4DrGEBaRQICvaYPfK/IHq1evXrp0qRz1fn5bN9zh94rcwW/zB+5CAgG+ht9nd4uEhATlKzx9jN/WDfw+u1v4bf7AXUggwNeMHj36xIkTchTwbwUFBSkpKXIULUTdCYtIIMDXZGVlvfrqq3IU8G+5ubnTpk2To2gh6k5YRAIBviY/P1/9bk4AikmTJu3evVuOooWoO2ERCQT4msbGxsGDB+fl5ckbAH9VUlISHh4u/dgSWoG6ExaRQIAP2r9/f0JCgtE3BAH+Zvbs2YsWLZKjaDnqTlhEAgG+KT09fcaMGY2NjfIGwM/k5eXFxMTwZqdbUHfCIhII8E01NTWpqakLFiyg9IQ/u3DhQnR0dH5+vrwBrULdCYtIIMBnVVRUjB07Ni0traysTN4G+IG8vLyoqKidO3fKG9Ba1J2wiAQCfFlDQ8PSpUvF1JuTk1NVVSVvBnxUSUnJrFmzYmJieKfTvag7YREJBPi+8+fPT58+PTw8PCMjY/v27YWFhZcvX5YbAV5OZHVBQcG2bdsmTZoksn3x4sX8TafbUXfCIhII8BelpaU7duwQpWdycnJMTEwA4FtiY2NTUlIyMzN37dpFxWmTAOpOWEMCAYCNmKfhS8hnWEQCAYCNmKfhS8hnWEQCAYCNmKfhS8hnWEQCAYCNmKfhS8hnWEQCAYCNmKfhS8hnWEQCAYCNmKfhS8hnWEQCAYCNmKfhS8hnWEQCAYA7lZaWaleleVraCngX6k5YRAIBgDvl5uYePXpUXdXO0yIutqqrgNeh7oRFJBAAuFN5eXl4eLhaeqrz9OHDh0VcbP2hKeBtqDthEQkEAG42cuTIsLAwpfRU5ulDhw516tQpMzNTbgp4FepOWEQCAYCb5eTkBAYGRkREiNJTzNOi6AwJCenQocOxY8fkpoBXoe6ERSQQALhZQ0NDcHBwQkKCKD3FPN2pU6fu3bsnJSXJ7QBvQ90Ji0ggAHC/iRMnihl69OjRAc2GDRu2fv16uRHgbag7YREJBADuV1hYqFScQlBQUI8ePfhEEXwAdScsIoEAwBaxsbFK3ZmUlMQniuAbqDthEQkEALbIyclR6s5+/frxiSL4BupOWEQCAYAtlE8XKe93ytsA70TdCYtIIACwi/LpIj5RBJ9B3QmLSCAAho4ePRoWFqb8YzHQ9tSv34eHCKDuhDUkEOCnduzY8dRTT8lRDTHfR0ZGMutbdODAATkEl5GEnoa6ExaRQICPKyoqSk9PDw8P79atW0ZGxvvvv6/EJ0yYcOXKlbvb/oD5Hh7CxVQU9VB8fPzt27fV1bu3wz0YWFhEAgE+bsSIERs3bqysrKyurj58+HBaWprcwoGLMz3QNlxJSFEPif+/2rJli7p693a0UmlpqXZVGlhpK+AUdybg43r06HHx4kU56jB/qFyZ44E25jQtRT6fP38+Li7u5s2byqoSLykpefzxx7t27Sr+e/ny5bv2gQtyc3O1w659boi42KquAq7Qn3gA+IxNmzb16dMnIyPjjTfe+Prrr9W4bt3pdHYH2ot5cir5nJmZuW7dOnVV+NnPfrZixYqqqqply5aZ/0EzdJWXl99zzz2HDh1SVtWBFRER51e40FI6Ew8AH1NaWrpt27asrKxhw4a99957StCx7jSf14F2Z5KiSj7/+c9/jo2Nra6uVtO7Z8+elZWVYuHGjRuiTtLuAhdNmTIlODhYKT2VgRXLIiLiclPAGXniAeDDysrKunXrpixLdafJjA54DqNEVfN51qxZyi9FKaui7hQVZ1Nz3dmrVy+1PVx37NixwMDAkJAQUW6KgRX/Fcsiwq9woRWoOwEfl5qaevDgwfLy8srKyrVr1z7++ONKXPo7Ld253F3ERNWnT5+wsLAmh3pXy2RTWzL5him1h+3VVdfP63pLrdbt1VIWz6Kbruoxi4uLY2Ji1NVJkyYtX778u+++W7Zs2ZNPPvnDDmiJAQMGiCHt1KmT+l8RkRsBLrB08wPwfKtWrXrkkUdCQ0MjIiKmTJmifv5UnZh1Z3Fd2nLB6OuZdCUnJ+fl5clRd7BYwegy+YYpx9M5Rmzl+ulcb6nVur1ayvwsP/3pT0VS9e/f/8MPP5S3fc8xabXHnDt3rroqEvWxxx4T/88j/ltSUqK2QYusX7++V69eAd8Ty/wKF1rH7OYH4PMc528XtejrmcSs39jYKEfdwbyCcTvH0zlGbOX66VxvqdW6vVrK/Czbtm377rvvPv744z59+sjbNFqdumiF8vLyLl26qHWnWOYTRWgds5sfgG9r6cytLRdc+XomZVmdq9RVZWtVVdXs2bNFB5KTkz/99FPtpqtXr06ePLlbt25JSUknTpxQj7ZixYrY2Fixy549exyPrLuXlu4Z6+vr//Ef/zEkJKTJ4AhlZWV/+7d/Kybahx56SO2hei3aDjj9yp5hw4bl5+c3Nf/BXEpKiry5JR0Q+vfvL7rdt2/f3/72t+YttVzcS7cnugOobJKWXTyLbkvFlStXoqOjtRFHLU1gWDFlyhT139n5RBFaTf/BBMBjaUodN1i9erV8AgOiLNB+HNiVr2dSl3WDM2fOFGf/7rvvioqKlD+8Uzc9++yz77///q1btw4fPixKHHXHzZs3X79+/cMPPxRlihpUFoz20tI949tvvy1KIqWB7hGmTZs2f/58sZe4TMcr0nbA6Vf2rFmzRhxKLCxcuFD5uh+J6x1QNDY2njp1KioqymlLLVf20u2J7gAqm6TlJtfOotuyqfndtb/5m7/ZuHGjppU+0Z8Ad5PPgWbif5Z69uwpxkf8l08UodW4wQAv48Z50fW3i0QFIOoAtT5TOP16JnVZN9i7d+/a2lo1rt0UHh6uFgHBwcHS1vr6et0j6+6lZXJGhe4RIiIi1H9SVNs7LjS58JU9V65ciY+PF2VWQkKCNJgK1ztw8eLFKVOmDBgwQPnXT5OWWq7vpdsT8wFsRd90Wwq9evUy/4thhesJ7DrdcYNC+XQRnyiCFdxggJdx77zo4swt2hh91KbJ4euZGhoa1GVpQbssiphbt26pce0mUbR9++232k1NBgfRBnX30jI5o0L3COLSvvvuO2XZ8bzaI7jylT1paWmiWP+7v/s7eUMz1zsg6te1a9deunRJXJEa1G2p5fpeuj3RHUDHl9v1s+i21DYw4WLqtpQrp/Zb69evF+PDJ4pgBTcY4GXcPi+6Mn9HR0d//PHHjY2N6keMjb6eKTY29qOPPhKF19atW3WLM3X52Wefzc3Nra2tLSoqyszM1G56+umnlyxZcv369cuXL8+cOVPaUbvcr1+/kydPKsu6e2mZnFGhewRxaevWrauqqvr973/veEXaDrjylT27d+8W5em+ffvkDc1c74Coa//0pz+J4J49e9Sgbkst1/fS7YnjAOq+3K6fRbelK1xJ2tZpUTf8jbjfxfjwiSJYwQ0GeBk75kWns/gf/vCHuLi4rl27PvHEE0rE6OuZRF0lDtWnTx9RgTlWadplMXtNnTpVVB6DBg0SVYt2U1lZmTim2JSQkKD+ALTuQUTHwsPDlTcXdffSMjmjQvcIZ8+evf/++++5556srCzHK9J2wJWv7BElmhixuro6eUMz1zvw3nvvhTd76aWX1KBuSy3X99LtieMA6r7crp9Ft2WTw+sicZquVpifGowPLCKBAC9j03Pf1rkcKlHDzZ07V47CZXYnqk33l89gfGARCQR4Gfue+3bP6Lhz586QIUNOnTolb4Br2iBF7bu/fAPjA4tIIMDL2Prcb4N5HWidtklOW+8vH8D4wCISCPAydj/322Z2B1qkzdLS7vvL2zE+sIgEArxMGzz322yOB1zRlgnZBveXV2N8YBEJBHg69aPiCum5L211l7ac6QETdqdiu9xf3ou6ExaRQICny83N1U662ue+iOt+YZBb2D3fA061QRK21/3lpag7YREJBHi68vLy8PBwdWpUn/uHDx8WcVu/w1mcNCwsLABoJyL9bC06m9r1/vJG6vgArUMCAV5g5MiR6gSsPPcPHTrUqVMn5TdjAFjB/eU66k5YRAIBXiAnJycwMDAiIkJMjeK5LybFkJCQDh06HDt2TG4KoIW4v1xH3QmLSCDACzQ0NAQHByckJIipUTz3O3Xq1L1796SkJLkdgJbj/nIddScsIoEA7zBx4kTxxB89evT//dVbQMCwYcPWr18vNwLQKtxfLqLuhEUkEOAdCgsLlRlRCAoK6tGjB594ANyF+8tF1J2wiAQCvEZsbKwyLyYlJfGJB8C9uL9cQd0Ji0ggwGvk5OQo82K/fv34xAPgXtxfrqDuhEUkEOA1lE8/KO/HyNsAWMP95QrqTlhEAgHeRPn0A594AOzA/eUUdScsIoHgm44dOzZnzpwxY8bExcUp/3YGzyReoNGjR8+ePfvQoUP19fXyCwkvx51oh3a8awKoO2ENCQRfs3///sGDBycnJ2dnZx8/fryoqEhu4eUOHDggh7xZcXHxiRMn1qxZk5qaGhkZuXnz5jaeR2ETL70TveL+ase7hroTFpFA8B01NTXp6elDhgzJy8uTt8EbnD17dsKECUOHDi0oKJC3wXtwJ7alNr5rqDthEQkEH1FRUSH+13/GjBl1dXXyNniVvXv3RkZG7tu3T94Ab8Cd2C7a7K6h7oRFJBB8QUNDw9ixYxcsWNDY2Chvgxc6ffp0bGxsG0yicC/uxHbUNncNdScsIoHgC5YuXZqWlsZU50vEJBoZGXnmzBl5AzwYd2L7aoO7hroTFpFA8Hrnz5+PiooqKyuTN8DL7d27NzExsc0+MAGLuBM9gd13DXUnLCKB4PWmT5+ek5MjR+ETJk6cuGnTJjkKj8Sd6CFsvWuoO2ERCQTvduXKld69e1dVVckb4BO++uqr6Oho+968gbtwJ3oOW+8a6k5YRALBu23fvn3KlClyFD5kzJgxfB2P5+NO9Cj23TXUnbCIBIJ3y8jIEBOeHIUPWbt27fPPPy9H4WG4Ez2KfXcNdScsIoHg3ZKTkwsLC+UofMjnn38+cuRIOQoPw53oUey7a6g7YREJBO8WHR39zTffyFH4kJKSkr59+8pReBjuRI9i311D3QmLSCB4t6CgoDt37shRD9COT+d2PLUdGhoagoOD5Sg8jMfeiS7irnGRjw0U2h4JBO/m9CEY0CwwMDAqKiorK6u2tlZuYQ+nHbNPO57aJr53Rb7H6Wuk3IkdO3aMjY194YUXSkpK5Bbtymn/vY5NV2TTYeE/SCB4N6cPQaVBfX19UVHR4sWLp0+fLrewh9OO2acdT20T37si3+P0NVIaiP/xO3/+/BtvvDFgwIArV67IjdqP0/57HZuuyKbDwn+QQPBuTh+C2gbffvttly5d1Pju3bsTExM7duwoVuvq6hYuXBjdTCyIVaXZ7du3X3rppT59+vTv3//1118XkTt37rz22mvx8fE9e/Z85plnKioqlJYiLhqIZmFhYePHj1fPa9Rey/EsRv1Ruv3www+LswwfPlz3B/G0lyzO26XZyJEjT548qWn1/7Xo1KJwFy379ev33nvvzZ8/v0+z/fv3qw22bt0q6onu3buLK62srFTj2qFucqFXEqevMtqd09dIavDrX//6hRdeUJaN7hGjbDdq39jYuGbNGpGB3bp1S0tLCwoKUuJNLqQcd42LbDos/AcJBO/m9CGobXDlyhXx9FfjL7/88uXLl5XV5cuXi/mjpll2dvaKFSuU+MqVK+fOnSsmtqKioieffFJE1q1bJxrcaPZCM6Xlpk2bxAGvXr1669YtMSuo5zVqr+V4FqP+iMPOmzfv3Llz1dXVb7755ogRI+460PdtpEhtbe2qVauGDRsmxZtaeGqxLC5wz549gYGBYrmsrEz5UT61wbJlyy5duiTmzqysLNFPNa4dapVJrySOVwRP4/Q1khr85S9/UT/4YnSPGGW7UfstW7Zs2LChqqpKpNaxY8ccu2SSci1q7M93jU2Hhf8ggeDdnD4ElQb19fX/8z//I6Yu8cjWxlUDBw68du2asiwmCbGqLA8aNEj6vemhQ4eq70mIXWJjY5Xl+++/Xz1Ck+b4Ru21HM9i1B9tt8VkHBISoq6qdMdENNa+/aNqxalv3rwpZlB1Wf34gva8paWlcXFxjnGJUa8kJkeAh3D6GkkN6urq1Ow1ukeMst2o/QMPPKD99wTdLhmlXIsa+/NdY9Nh4T9IIHg3pw/BgGbiKR+Mo4Z6AABe0klEQVQfH79hwwb1I7fSjqGhoQ0NDcqyKFLFqhqXPqXbuXNn5ZgKdS4RcW1L9fhG7bUcz2LUH/WwuqtSsLi4eM6cOSkpKVFRUeIIuo1bd2rdZW3QaMcm13olcaUN2pfT10hqUFRUpNZYRveItIu6atTe6B50JeVa1Nif7xqbDgv/QQLBuzl9CBo1kOIDBw68evWqslxWVqa+XSGqVTWuGDJkiOM/fgliEtV+WF49vlF7LcezGPVH6rbu1anB++67b8mSJYWFheXl5bdv39Zt3LpT6y5rg+KMgwYNcow3udYriStt0L6cvkZSgxUrVsydO1dZNrpHjLLdqH3fvn1ramrU1RbdCC1q7M93jU2Hhf8ggeDdnD4EjRpI8eXLl2dnZzv+edYrr7wyf/585Q+5MjMzRWT16tVbt269fv36rVu3Tp8+PXnyZKXlvHnzPvnkk4aGhpKSksWLF6vHN2qv5XgWo/5I3da9OjUYGRl55MgRMUsVFxfn5ubqNm7dqXWXxcIXX3xRV1d348aNnJwc5e/epMZNrvVK4kobtC+nr5HS4ObNmxcuXPjlL38p/j9N/adqo3vEKNuN2s+ZM2fnzp0ieO7cueeee65FN0KLGvvzXWPTYeE/SCB4N6ffVm30lJTi4rm/YMGCqGZiQf04am1t7YsvvhgRESGmSeWDq6Ky3LdvX2JiYufOnceNG/fuu+8qLSsrK6dOndqjR48hQ4Zs2LBBPb5Rey3Hsxj1R+q27tWpwYMHDw4dOjQkJGTQoEErV67Ubdy6U+sui4Xx48d36dJFHErMoNXV1Y6Nm1zrlZZ934ANN3LlTgxo/ouXmJgYkXLa7+80ukeMst2ovSjdMjIyxD0ogmfOnImOjlbirqQcd42LnJ4aMEcCwbtF8+t8HsOmCcm+X/yDG3nUnVhTU7NlyxZRg8obPI/X3TU2dRj+gwSCd0tOTi4sLJSjaA82TUiff/75yJEj5Sg8jIfcif379+/YsWOvXr2eeuopz6mDTXjdXWNTh+E/SCB4t4yMjO3bt8tR+JC1a9c+//zzchQehjvRo9h311B3wiISCN5NTHVTpkyRo/AhY8aMycvLk6PwMNyJHsW+u4a6ExaRQPBuV65c6d27d1VVlbwBPuGrr76Kjo6ur6+XN8DDcCd6DlvvGupOWEQCwetNnz49JydHjsInTJw4cdOmTXIUHok70UPYetdQd8IiEghe7/z581FRUdLP1sEHKD9jbdPbNnA77kRPYPddQ90Ji0gg+IKlS5empaU1NjbKG+C1Tp8+HRkZeebMGXkDPBh3Yvtqg7uGuhMWkUDwBQ0NDWPHjl2wYAETnm8Q02dsbOy+ffvkDfBs3IntqG3uGupOWEQCwUdUVFSkpqbOmDFD/aUQeKm9e/dGRkbaPX3CJtyJ7aLN7hrqTlhEAsF31NTUpKenDxkyxKYvEIHdzp49O2HChKFDhxYUFMjb4D24E9tSG9811J2wiASCr9m/f//gwYOTk5Ozs7OPHz9eVFQkt4AnKS4uPnHixJo1a1JTUyMjIzdv3mzfRyLQlrgT7dOOdw11JywigeCbjh07NmfOnDFjxsTFxQXAg4kXaPTo0bNnzz506FCbzZ1oM9yJdmjHuyaAuhPWkECAl+G5D9iH+8sc4wOLSCDAy/DcB+zD/WWO8YFFJBDgZXjuA/bh/jLH+MAiEgjwMjz3Aftwf5ljfGARCQR4GZ77gH24v8wxPrCIBAK8DM99wD7cX+YYH1hEAgFehuc+YB/uL3OMDywigQBPV1paql2VnvvSVgBWUFeZY3xgEQkEeLrc3NyjR4+qq9rnvoiLreoqAIuoq8wxPrCIBAI8XXl5+T333KOWnupz/3e/+114eLjY+kNTANZQV5ljfGARCQR4gQcffLBz585K6ak893/zm9+EhIRkZmbKTQFYQF1ljvGBRSQQ4AV27dolHvfKu55iQRSdgYGBQUFBx44dk5sCsIC6yhzjA4tIIMA7hIWFhYaGitJTPPdF0RkfH5+UlCQ3AmANdZU5xgcWkUCAd/j5z38unvhdu3YNaPboo4+uX79ebgTAGuoqc4wPLCKBAO9w5cqVwMBApejs3bv3PffcwyeKALejrjLH+MAiEgjwGvfdd59Sd44bN45PFAF2oK4yx/jAIhII8BrKp4uEQYMG8YkiwA7UVeYYH1hEAgHeJCwsTDz3+UQRYBPqKnOMDywigQBvony6iE8UATahrjLH+MAiEqhNVVRU7Nq1KzMzMyUlJTY2Vvk3UwCwW0xMTHJyckZGxo4dO0pLS+VnE74XQF1livGBRSRQGxEV5+LFi8PDwydNmrRt27aCgoLLly/LjQAXHDhwQA4BzogHTmFh4fbt20XpKR5E06dPP3/+vNwI1FXOMD6wiARqC/n5+TExMbNmzSopKZG3AUDbqqqqysnJiYqKWrp0aUNDg7zZv1FXmWN8YBEJZLudO3eK53teXp68AQDaT1lZWVpa2tixYysqKuRtfoy6yhzjA4tIIHvl5+dHR0dfuHBB3gAA7a2xsXHBggWpqak1NTXyNn9FXWWO8YFFJJCNKioqYmJieKcTgMcSpeeMGTPS09PlDf6Kusoc4wOLSCAbLVq0aPbs2XIUADxJXV1dQkLC/v375Q1+ibrKHOMDi0ggu1RUVISHh/NBIgCeLy8vb/DgwY2NjfIG/0NdZY7xgUUkkF127949adIkOQoAHik5OTk/P1+O+h/qKnOMDywigewybdq03NxcOQoAHunVV1/NysqSo/6Husoc4wOLSCC7pKSkFBQUyFEA8EgnTpwYPXq0HPU/1FXmGB9YRALZJTo6+ptvvpGjAOCRSkpK+vbtK0f9D3WVOcYHFpFAdgkKCrpz544chfs4Pv527Njx1FNPScHWcTy4EddbQstjx81Kx9yyr5WDWNHQ0BAcHCxH/U97jb+3YHxgEQlkF6c3Z8D3unbt+pOf/OR///d/5RZu5bQ/jlqxS/uaMGHClStX5GiruOva3XUct2v3jrV7B+xg5aKs7OsuntCHdscgmGN8YBEJZBenN6fSoLGx8dq1a9nZ2UlJSXILt3LaH0et2MVnuOva3XUct2v3jrV7B+xg5aKs7OsuntCHdscgmGN8YBEJZBenN6e2wY0bN7p166Ys37lz57XXXouPj+/Zs+czzzyj/nSyaL9169YBAwZ0795dxCsrK5V4XV3dwoULo5uJBbGqtt+9e3diYmLHjh0D7qY0EKfo0mzkyJEnT55UgirHXQI0B1Ta6B5Bafbwww+HhYUNHz78zJkzSvzUqVOPPvqoCMbGxs6cOVMJGh3k9u3bL730Up8+ffr37//666/rRtQLMR8Bx55IdDugHlxL9xLUlo5btQOoNDN5cRcvXiyurl+/fu+99978+fP7NNN+lbduP7V0D/7ll18mJCQoYyLGMC4ubteuXS3qmPZFV1Ydh9ToJdASpxAvnHj5xL7jx49XzqvEdU+tFdDa8THqsNFJ1QFpsv+ijPbVLrS089oXy5X+S9RT+zMGwRzjA4tIILs4vTmVBmIKKS0tXb58+T//8z8r8XXr1mVnZ99o9kIztf2yZcsuXbokKs6srKx58+YpcbGvmL1qmokdV6xYobZ/+eWXL1++rK4qC5La2tpVq1YNGzZM3uCwi3RAlXQE0Uz07dy5c9XV1W+++eaIESOU+MCBAz/44AMRvHjxoujnD/s3kw6ycuXKuXPnigm1qKjoySef1I2o3TMZAd2e6HK8iru3/x/dS1Bbmm9VmLy4ottXr17ds2dPYGCgWC4rK9u7d6+oIbS7Nzn0U8vo4OvXr3/rrbfEwttvv/3LX/5SCbreMSmLdIfU6CXQ2rRpkziUuMZbt26JulDtgNGptVo9PkYdNjmp07zSsnJRRvtqF1rUeenFcqX/Et209zcMgjnGBxaRQHZxenMGfK9bt267du1S40OHDlXfy7x27VpsbKzaXm0jStW4uDhlWZQ7opmyLOYwsaosSx0w6Y+Y1YKCguSowy4uHkHbTMRDQkKU5ejo6I0bN+q+8aPQHmTQoEGisNBudYyoJ3JlBLQ9MWJ0FSrdS1Bbmm9VOH1xb968KeoqdVn3cx5Gr5fRwRsbG3/+85+LGmXWrFkNDQ1KsKUdc1zVDqnRS6B1//33q22aNIcyOrVWq8fHqMMmJ3WaV1pWLspoX8eFJtc6L71YrvRfopv2/oZBMMf4wCISyC5Ob06lQV1d3SOPPPLuu++q8c6dOwdoqLOs9oD19fWhoaHKslhQiwltXOqAtFpcXDxnzpyUlJSoqCixi25vW3cEo72OHDkyatQoUSg88MADH330kRI0OohYlr4NwDGibdyKEVAYdUC3se4lmF+gdBxXXlzdZaN+ahkdvKn5X9sXLlwo/qtGpCMY7Ss1M1o1egm0xCm0r6C6r9GptbTn1V02Gh9tY+2qyUnVNnZflNG+jgvSqtHBpfau9F8iHcE/MQjmGB9YRALZxenNqTYoKyu77777/vu//1tZHTJkiOO/ZTfdfcDy8vJBgwYpywMHDrx69aqyLA6l+26f0KFDB3USEsQZlyxZUlhYKA51+/Zt3d5Ku0htjI4gNZNWq6ur33nnnd69eyurRgeJj49XL8ooojZ2cQR0r9GoA7qNFdIlmF+gNIauvLi6y0b91DI6uPBP//RP33333dSpU9XOtKJjJqtGL4FWXFxcbW2tuqrua3RqLd0x0S4bjY9Rh01O2mYXZbSv44K0anRwqb0r/ZdIR/BPDII5xgcWkUB2cXpzaht8+eWXo0aNqqmpEcurV6/eunXr9evXb926dfr06cmTJ6vtv/jii7q6uhs3buTk5Ch/49jU/Fdc2dnZjn/FJXVA1Kk7d+5U31+JjIw8cuSImKGLi4tzc3N1eyvtIrUxOoLRZPnWW29dunRJtP/000/FxKkEjQ7yyiuvzJ8/X/lrzszMTN2I2tjFEdC9RqMO6DbWvQTzC5TG0OTFVRaMlo36qWV0cNGxf//3fxcLGzduXLZsmRJsRcdMVo1eAq158+Z98sknotgtKSlZvHixuq/RqbV0x0S7bDQ+Rh02OWmbXZTRvo4L0qrRwaX2rvRfIh3BPzEI5hgfWEQC2cXpzSk1+PDDD5977rmm5m9v3rdvX2JiYufOnceNG6f+E7xoP378+C5dusTFxYm6s7q6WomLSnTBggVRzcSC9tPcyoJCzHCiGOrYsaOYocXqwYMHhw4dGhISIuqPlStX6vZW2kVqY3QEo8ly1qxZffv2FRclKuxTp04pQaOD1NbWvvjiixEREeJilU+vO0bUxi6OgO41GnVAt7HuJZhfoDSGJi+usmC0bNRPLd2Df/XVVyJSX1/f1DxQ99577+HDh5ta1TGTVaOXQKuysnLq1Kk9evQQ592wYYO6r9GptXTHRLtsND5GHTY6qYir/2xt90UZ7eu4IK0aHVxq70r/JdIR/BODYI7xgUUkkF3c/ntF3O2A3Q4dOtS/f3856h8a+L2iZjxpzTE+sIgEsku0u3+fnbsdsFX37t3Dw8P37Nkjb/AP/D67gietOcYHFpFAdklJSSkoKJCjAOCRTpw4MXr0aDnqf6irzDE+sIgEssu0adNyc3PlKAB4pFdffTUrK0uO+h/qKnOMDywigeyye/fuSZMmyVEA8EjJycn5+fly1P9QV5ljfGARCWSXioqK8PDwkpISeQMAeJi8vLzBgwc3NjbKG/wPdZU5xgcWkUA2WrRo0ezZs+UoAHiSurq6hISE/fv3yxv8EnWVOcYHFpFANqqoqIiJicnLy5M3AIBnaGxsnDFjRnp6urzBX1FXmWN8YBEJZK/8/Pzo6OgLFy7IGwCgvYmic8GCBampqTXNP5aGJuoqZxgfWEQC2W7nzp1RUVG86wnAo5SVlaWlpY0dO7aiokLe5seoq8wxPrCIBGoL+fn5MTExs2bN4mNGANpdVVVVTk6O+P/hpUuXNjQ0yJv9G3WVOcYHFpFAbaSiomLx4sXh4eGTJk3atm1bQUHB5cuX5UYAYA/xwCksLNy+fXtGRoZ4EE2fPv38+fNyI1BXOcP4wCISqE2J6nPXrl2ZmZkpKSmxsbEBANAmYmJikpOTRdG5Y8eO0tJS+dmE7wVQV5lifGARCQR4GZ77gH24v8wxPrCIBAK8DM99wD7cX+YYH1hEAgFehuc+YB/uL3OMDywigQAvw3MfsA/3lznGBxaRQICX4bnvXfhKdu/C/WWO8YFFJBDgZXjue5GjR49GRkaK/8ob4Km4v8wxPrCIBAK8DM99b6EUnatXr6b09CLcX+YYH1hEAgFehue+V9C+08m7nl6E+8sc4wOLSCDAy/Dc93yOhaZjBJ6J+8sc4wOLSCDAy/Dc93BGJaZRHB6F+8sc4wOLSCDAy/Dc92TmxaX5VngC7i9zjA8sIoEAL8Nz32O5Ula60gbtiPvLHOMDi0ggwMvw3G8bpaWlubm55eXl8gYDrheUrrdUiD6Inoj+yBtgA+4vc4wPLCKBAC/Dc7/NiNIwPDx82rRp+fn58ra7tbSUdLG9OK84u+iD05ZwF+4vc4wPLCKBAC/Dc78t5eTkhISEBAUFJSUlrVu3TvftTxeLSInJXuIs4lwJCQkdOnQIDQ3VbQObcH+ZY3xgEQkEeBme+20sKysrMDDwgQceGD9+fM+ePaW3P03KR6cc91Xe4OzatWv//v1FsSsWWndktBr3lznGBxaRQICX4bnf9kTpGdAsPj7+pz/9aUJCgvL254cfftjqolOhlJ7iOMobnFFRUREREcq5KDrbBfeXOcYHFpFAgJdRihJ4iJkzZ8qvUAuJI8gHRbuSXyFoMD6wiAQCACeOHj3apUsXtS4JDg4ODw9fvHixu97vfPvtt8eNGycOq54iPT3d4pEBO1B3wiISCADMaItOURo++uijR44c0W5tdYEo7VtXV7dixYro6GjlXGPGjGn1kQGbUHfCIhIIAAyJsq9jx45irlXe4Gybz7OfOnVKefszMDAwLCxMtw3QLqg7YREJBAD6RMHXrVs36Q1OXSZFpC5X2itvfz722GN8fyc8B3UnLCKBAEAHv1cEOKLuhEUkEAC4hysFpSttAI9F3QmLSCAAcBvzstJ8K+D5qDthEQkEAO5kVFwaxQEvQt0Ji0ggAHAzxxLTMQJ4I+pOWEQCAYD7aQtNik74DOpOWEQCAYAtlHJz9erVFJ3wGdSdsIgEAgC7iHJTzNMUnfAZ1J2wiAQCABsxT8OXkM+wiAQCABsxT8OXkM+wiAQCABsxT8OXkM+wiAQCABsxT8OXkM+wiAQCABsxT8OXkM+wiAQCABsxT8OXkM+wiAQCABsxT8OXkM+wiAQCAHcqLS3VrkrztLQV8C7UnbCIBAIAd8rNzdV+Ubx2nhZxsVVdBbwOdScsIoEAwJ3Ky8vDw8PV0lOdp0VExMXWH5oC3oa6ExaRQADgZmPHjg0LC1NKT2WeFsudOnXKzMyUmwJehboTFpFAAOBmixYtCgwMjIiIUH+fvXPnzh06dDh27JjcFPAq1J2wiAQCADerra0NCgoaM2ZMZGSkmKe7dOkSGhqamJgotwO8DXUnLCKBAMD9Hn30UTFDp6enBzRLSEhYv3693AjwNtSdsIgEAgD3y8/PVypORffu3flEEXwAdScsIoEAwBYRERFK0XnvvffyiSL4BupOWEQCAYAtFi1apNSdMTExfKIIvoG6ExaRQABgC+XTRWKe5hNF8BnUnbCIBAIAuyifLuITRfAZ1J2wiAQCALts3LhRzNMffvihvAHwTtSdsIgEAgBbHD16NDIycubMmeK/2l9sB7wXdScsIoEAwP2UolMpN7XLgFej7oRFJBAAuJljoekYAbwRdScsIoEAwJ2MSkyjOOBFqDthEQkEAG5jXlyabwU8H3UnLCKBAMA9XCkrXWkDeCzqTlhEAgGAG7heULreUlFeXp6bm1taWipvANocdScsIoEAwKqWlpIuts/Pz582bVp4eLjTlkDboO6ERSQQAFjiYhEpMdmrvLx83bp1CQkJHTp0CA0N1W0DtAvqTlhEAgFA65mUj0457qu8wdm1a9f+/fsHBQWJhdYdGbAJdScsIoEAoJUcC8eWUo7w4YcfKm9wRkVFRUREBDSj6IQHou6ERSQQALRGTU2NKBlXr14tb2ihmTNnKoUm4BXkDAZaggQCgFZy1/udb7/99rhx44KDg9WpPT093eKRAcADUXcCQOtZKT2lfevq6lasWBEdHa2UnmPGjGn1kQHAM1F3AoAlrSs9TfY6deqU8vZnYGBgWFiYbhsA8EbUnQBglUkRqcuV9srbn4899hjf3wnAZ1B3AoAbuFJKKlxvqeD3igD4DOpOAHAPVwpKV9oAgK+i7gQAtzEvK823AoDPo+4EAHcyKi6N4gDgP6g7AcDNHEtMxwgA+CHqTgBwP22hSdEJAArqTgCwhVJurl69mqITABTUnQBgF1FuBgQEUHQCgIK6EwBsJOpOOQQA/ooHIgDYiLoTAFQ8EAHARtSdAKDigQgANqLuBAAVD0QAsBF1JwCoeCACgI2oOwFAxQMRAGxE3QkAKh6IAOBOpaWl2lWp7pS2AoBfoe4EAHfKzc3VflG8tu4UcbFVXQUAf0PdCQDuVF5eHh4erpaeat0pIiIutv7QFAD8DHUnALjZ2LFjw8LClNJTqTvFcqdOnTIzM+WmAOBPqDsBwM0WLVoUGBgYERGh/j57586dO3TocOzYMbkpAPgT6k4AcLPa2tqgoKAxY8ZERkaKurNLly6hoaGJiYlyOwDwM9SdAOB+jz76qKg409PTA5olJCSsX79ebgQAfoa6EwDcLz8/X6k4Fd27d+cTRQBA3QkAtoiIiFCKznvvvZdPFAFAE3UnANhk0aJFSt0ZExPDJ4oAoIm6EwBsony6SNSdfKIIABTUnQBgF+XTRXyiCAAU1J0A/s+xY8fmzJkzZsyYuLi47z8MA3gWkZyjR4+ePXv2oUOH6uvr5SQG4PGoOwF/t3///sGDBycnJ2dnZx8/fryoqEhuAQsOHDggh9BaxcXFJ06cWLNmTWpqamRk5ObNm6k+Ae9C3Qn4r5qamvT09CFDhuTl5cnbAM929uzZCRMmDB06tKCgQN4GwFNRdwJ+qqKiIjU1dcaMGXV1dfI2wEvs3bs3MjJy37598gYAHom6E/BHDQ0NY8eOXbBgQWNjo7wN8CqnT5+OjY2l9AS8AnUn4I+WLl2alpZG0QnfIErPyMjIM2fOyBsAeBjqTsDvnD9/PioqqqysTN4AeK29e/cmJibyMSPAw1F3An5n+vTpOTk5chTwchMnTty0aZMcBeBJqDsB/3LlypXevXtXVVXJGwAv99VXX0VHR/OWJ+DJqDsB/7J9+/YpU6bIUcAnjBkzhi8FAzwZdSfgXzIyMkTpKUcBn7B27drnn39ejgLwGNSdgH9JTk4uLCyUo4BP+Pzzz0eOHClHAXgM6k7Av0RHR3/zzTdyFPAJJSUlffv2laMAPAZ1J+BfgoKC7ty5I0ddEBBg9rgw3+oJ1B46LngOky6ZbGodpwd02sADNTQ0BAcHy1EAHsP7HisArDApJgoLC/v16ydVpWJVBL/88ktt0ITJ8V1hcXcto0MZxf2N03Fw2sAzeWm3AT/B/Qn4F/NZ+eGHHz548KA2cuDAgR/96EfaiDnz4ztlcXcto0MZxf2N03Fw2sAzeWm3AT/B/Qn4F/NZ+Te/+c3TTz+tjaSnp+fm5jZpdjx16tSjjz4aFhYWGxs7c+ZMJahsDbibsik+Pr5Ls5EjR548eVJtv3v3blHmiuMMHz5c+YVDx93v3Lnz2muviSP07NnzmWeeqaioUHbXUk+kXXU8lNpMd0FqrNDtuZbuUBj1OaD5khMTEzt27FhXV6et5sWyiChtlMjt27dfeumlPn369O/f//XXX9duEi0XLlwY3UwsKDs2GXRGS3RMHEocULQZP368ekCTDv+w8/dEcOvWrQMGDOjevbtoXFlZqW7SHS7tVYvVxsbG1atX33vvvd26dfvxj38cFBSkNlOPo1016psJ3W4D8BDcn4B/MZ+Vq6qqevXqde3aNWVVLIhV5Uvm1R0HDhz4wQcfVFdXX7x4MTs7WwmqW42OX1tbu2rVqmHDhimrotm8efPOnTsnjvPmm2+OGDFCjf+wT1PTunXrxCluNHuhmXarwqhkcRp37Or777//i1/8QgpKPdfSHQqjPovTvfzyy5cvX1ZWRX2vVNsFBQUZGRlqG2Vh5cqVc+fOFWVWUVHRk08+qd20fPlyUT7WNBMnWrFihRLX7YzWpk2bRAeuXr1669YtUReqBzTp8A87f08Ely1bdunSJVFxZmVliRdRauD4QmuvevPmzWKruC7R7LPPPjN6LZz2zYRutwF4CO5PwL84nZVnzJixYcMGZXn9+vXPPfecsqzuGB0dvXHjRumdJ6MCQkuURLrvb4l4SEiIY1wYOnSo+o6aKIJjY2O1WxVGJYvTuNTg1KlTEyZMuH37tjao0PZcS3cojPosnW7Xrl2iIBMLr7zyyp49e6Q2gwYNKisrUxtrN4n6Uv0fA1FEilVlWbczWvfff7+6Y5PmgC522DFYWloaFxen2fj/Gb3QTc19uH79urpq9Fo47ZsJ3W4D8BDcn4B/cTorf/bZZ8nJycrysGHDjh8/riyrOx45cmTUqFHBwcEPPPDARx99JG2Vjl9cXDxnzpyUlJSoqKjQ0FCjZkbxzp07B2gEBgZqtypcPJRjXNvg22+/TU1NFf9VI0Y919IdCqM+S0cQ5dTgwYMbGxuTkpLUny1V24gzSh/w0m5qaGhQluvr68WqsqzbGS3RMe0x1QO62GHHoPbsRsMlHcSoD1IzddWobyakQwHwKNyfgH9xZVZOTEw8derUyZMnRUmkBqUdq6ur33nnnd69e0tbO3TooFZFwn333bdkyZLCwsLy8vLbt2+rzaSjGe0+ZMgQ9Z9ojYSEhNy8eVNdNTqU46nVBdGxCRMmnD59WllVGPXckTQURn12PII46YYNG5544gk1oraJj4+/evWqGtduGjhwoLqprKxMfb9TIXVGKy4urra2Vl1VD+h6h6WgGJlBgwYpy0bDJR3EqA9GL6JR30zodhuAh+D+BPyLK7PymjVrXnzxxV/84hdvvvmmGlR3fOutty5duiRqi08//VSUBdJWUYjs3LlTfU8rMjLyyJEjonFxcXFubq5ROWK0++rVq7du3Xr9+vVbt26JunDy5Mk/7PO9ESNGiOqtrq7u3Llz8+bNMzqU46nVhRdeeGH37t3Kssqo51q6Q2HUZ8cjbNmypXPnztu2bVMjaptXXnll/vz5yt93ZmZmajctX748Ozvb8e87dTujJQbnk08+EbV4SUnJ4sWL1QO63mEl+MUXX4jRvnHjRk5OjvK3p03GwyUdRFzUxx9/XF9ff/bs2WeffVbdavQiGvXNhG63AXgI7k/Av7gyK1+9ejUqKkpUEtq33NQdZ82a1bdvX1EwjRo16tSpU9JWUdmIoqdjx45id7F68ODBoUOHhoSEiCpw5cqVRuWI0e6iSNq3b19iYqI43bhx4959913tXoozZ84MHz68S5cuDz74oCg0jQ7leGrtgpYSNOq5lu5QGPXZ8QiXL18ODg7W/uO+2qa2tlaU/hEREXFxcY6fZ1+wYEFUM7Ggfp5dtzNalZWVU6dO7dGjhxgWUeSpB3S9w0pw/PjxYrRFx0TdWV1drcSNhks6yHfffTdt2jTRh9GjR3/44YfqVqMX0ahvJnS7DcBDcH8C/qXVv1cENLm7qnPv0Zr4vSLA47n5ngfg4fh9dljh3krRvUdr4vfZAY/n5nsegIdLSUkpKCiQo4BPOHHixOjRo+UoAI9B3Qn4l2nTpim/PwT4nldffTUrK0uOAvAY1J2Af9m9e/ekSZPkKOATkpOT8/Pz5SgAj0HdCfiXioqK8PDwkpISeQPg5fLy8pSv4pc3APAY1J2A31m0aNHs2bPlKODN6urqEhIS9u/fL28A4EmoOwG/U1FRERMTk5eXJ28AvFNjY+OMGTPS09PlDQA8DHUn4I/y8/Ojo6MvXLggbwC8jSg6FyxYkJqaWlNTI28D4GGoOwE/tXPnzqioKN71hFcrKytLS0sbO3ZsRUWFvA2A56HuBPxXfn5+TEzMrFmz+JgRvE5VVVVOTo74f6elS5c2NDTImwF4JOpOwK9VVFQsXrw4PDx80qRJ27ZtKygouHz5stwI8AwiOQsLC7dv356RkSGSdvr06efPn5cbAfBg1J0A/q/63LVrV2ZmZkpKSmxsbADgkWJiYpKTk0XRuWPHjtLSUjmPAXg86k4AsFGAu3+CHAC8Fw9EALARdScAqHggAoCNqDsBQMUDEQBsRN0JACoeiABgI+pOAFDxQAQAG1F3AoCKByIA2Ii6EwBUPBABwJ2k75WU6k6+dRKAP6PuBAB3ys3NPXr0qLqqrTtFXGxVVwHA31B3AoA7lZeX9+rVSy091brzP/7jP8LDw8XWH5oCgJ+h7gQAN3vwwQe7dOmilJ5K3bl3796QkJDMzEy5KQD4E+pOAHCz3NxcUW6Gh4eL0lMsiKIzKCioQ4cOx44dk5sCgD+h7gQA9wsNDe3Vq5coPUXdKYrOPn36JCUlyY0AwM9QdwKA+6Wnp4uKMyYmJqDZyJEj169fLzcCAD9D3QkA7veXv/wlMDBQKTrDwsJ69uzJJ4oAgLoTAGwxaNAgpe4cNWoUnygCgCbqTgCwifLpImHAgAF8oggAmqg7AcA+oaGhou7kE0UAoKDuBAC7KJ8u4hNFAKCg7oTfOXr0aFhYmPIPoADgM8STTfsbrYAHou6E79ixY8dTTz0lR+8mHsqRkZE8mtFmDhw4IIcAe/B8g+ej7oT3KSoqSk9PDw8P79atW0ZGxvvvv6/EJ0yYcOXKlbvb3oWHMgDf5spTLiAgID4+/vbt2+rq3dsBG5Ft8D4jRozYuHFjZWVldXX14cOH09LS5BZ6XHkcA4C3c/qsE4Wm+F/3LVu2qKt3bwdsRLbB+/To0ePixYty1PTp6fRBDAA+w/yJJx6V58+fj4uLu3nzprKqxEtKSh5//PGuXbuK/16+fPmufQA3MZynAY+1adOmPn36ZGRkvPHGG19//bUaN6o7zR/BAOB7TJ57yqMyMzNz3bp16qrws5/9bMWKFVVVVcuWLXP6t/JA6+jP04CHKy0t3bZtW1ZW1rBhw9577z0lqFt3mjx8AcCHGT39lEfln//859jY2OrqavXJ2bNnz8rKSrFw48aNe+65R7sL4C468zTgRcrKyrp166YsO9adRo9dAPAH/6+9uw+uosoTPp4QkgkETCSQhCSGAgISVALDOxmp1XERKXcYdFFwhGEdQFfkJZRaywCKIqICKgpYhnJBHaCIs0zJgCg4jGKV4MhCGHWxyqplQhaQYAggRAJ5ec6m9zlzPN3nvuX2Tbrz/fxBdZ8+733u6V8uuTeOe6DcKmfMmLF8+XI17hQRZ2NT3NmlSxeZH4gi/TkNtH5FRUXvv/9+VVWV+NF81apVP//5z610Le503HBbnD04Ruha8+y1tr6515/m19z8GhA6+04o5//48ePZ2dnydPz48UuWLPn++++feOKJu+66S+YHoogXP7znmWee+dnPfpacnNytW7dJkyadPHnSSlcfZvat1pFaJC623y3idv0tzvcD1IQ13rAyR8a9JtyrubWJ8UgjaO6f/umfOnfu3KNHj+3bt+vXFNp+qDY0e/ZseVpeXn7LLbekpKSIfysqKmQeIIrCXuVA6xdi0KmJi+13i7hdf4vz/QA1YY03rMyRca8J92pubWI80giaW79+/ffff//ee+91795dv/Zjke2KQNSFvcqBVi6s7VXd6OMM3y1y5syZCRMmdO7cuX///vv377cSL1y4MHPmTNFQYWHhhx9+aMq2ZcsWUWFqauqkSZOsFKvaOIWV3qNHj6SkpNzc3N/97ndWikpku3r16m9+8xuRpzHkthyzqVVduXJl8ODB9fX1Il38K47l2732/mh90Gj5tQHay9rrt0+pPUVOl+MXvoirTz31VE5OjiiydetWK9FxEuxzpXKsXGPvv+ybY4vqDGiTY6rNNNv2zjt2WNQwb968rl27im789a9/lYlBF5LGsW/WgWNxexO/+MUvUlJShg0blpCQoNXQ6FS/fYAqU6P2W6+y98peidbu329SwNtkHajHWluNhoJah7XmQumhdOrUqaysLDXFUVh7I+CSv79mAK9QN2hHK1as0Ms4Ec8A9TObcU3bvf27RX71q1+9/fbbly9f/tOf/iQCICtx+vTpopXvv/++vLzc+kUox2xpaWmHDx+urq5+7rnnrBRZrTyQGhoaDh48mJmZqaU3NmV+/fXXKysrrdMQ23LMplU1a9asnTt3ioP33ntv9uzZVqJF649W0M6eX15yLKvlt0+pPUXW6fiFL+Lq2rVrz549u337dvGMtxIdJ8E+VyrHyu1M43VsUZuBoHffccYs9s47dljUIAIakfjyyy/fcsstMjHoQrKz9806cCyuNTF16lQR/oqbKH6okwW14Wv12weoMjVqv/WqUAZubzeU2yQvqaOz3zt7QXuH1dpC7KFQVVX1j//4j6+++qpMCUC8oOKC0csAUcUKg/cE3hlD/JlebNNis1afDVa19u8WSU9Plzty+/btrcSuXbvW1NTIsqZsw4YNu+OOOzZu3Gh9O0njjx9O1oHwzTffTJo0qWfPnh07dlTTJS0xxLYcs2lVHThw4Be/+IU4mDBhwueff24lOvZHK6gKml8r65jfPqX2FJnZ8Qtf5NWrV6/KY8dJsM+VyrFylWP/A7cor9pPA9dmZ++8Y4dlDWIxm77zwbGrqsB9cywur1rEi1EERtoleeBYv32AqsCNqrdepSU6VmJvVy3l2FU1g2NiY7CCaofVgiH2UOjSpYv8W8GBhbI3ap0Hoo4VBu8JujOGsr2KDNofc5fVat8tIh7kp0+f/nu+JiIkunz5sprimO3SpUu/+93v/vmf/3nw4MFWiuMzplevXqtWrTp27Jio03F0WmKIbTlms9ffv3//v/zlLwMGDJApjv2xF5SC5tfKOua3T6k9RWZ2/MIXxxYdJ8E+VyrHylWO/Q/cojYDQe9+gNm2d96xw7IGEfZ169ZNS7Q4dlUVuG+OxbUmRMgrAl/tkjxwrN8+QFXQRh2nLpSB29sN5TbV1dVpmbW2TAVlBsfEEHvYaGvOJJRdsTHk2oCIscLgPaHsjEE32aysrPfee6+hoUF+DlRWq323yD333LNo0aKzZ8+eOHFi+vTpVuKvfvWrkpKSmpqa8vLyKVOmmLI9+eST1dXVZWVl9nehrrvuOvn+oogV/vM///PChQtbt251HJ2WGGJbjtns9S9dujQ3N1eE2jLFsT/2gpJjfnWAWlnH/PYptafIzI5f+KK2Evj22edK5Vi5yrH/gVvUZiDo3Q8w2/bOO3ZY1PDNN9+ISOXRRx8VMykTrQOLY1dVgfvmWFxr4pZbblm9erXo27Zt2+w1ONZvH6AqaKOOUxfKwO3tBr1NOTk5O3bsEOH+a6+9Zh+dxbGgY4fV5kLsYYiC7oeS4+wBUcQKg/eEuDMG3mr/8Ic/5OXlderUady4cVaKWq363SKVlZWTJk0SD4/rr79ehEFWYlVV1X333ScS8/PzxSPHlE3kSUtLE1Hspk2brBRZrehAenq69e7UW2+9ld7ksccecxydlhhiW47Z7PUfO3YsISFB/doUx/7YC0qO+dUBamUd89un1J4iMzt+4Yvjs9xxEuxzpXKsXOXY/8AtajMQ9O4HmG175x07LO7psGHDOnbsOHbs2G+//dZKDGUhqQL3zbG41sRf//rXG264ITU19YEHHhA91PI41m8foCpoo45TF8rA7e0GvU1btmwRm0z37t1F3G+fH4tjQccOq82F2EO1uEngnVATtDagmVhh8J7Qd8awNlwALqmvr3/33XdHjBihX4DLwt0DQ99dgciwwuA9Ye2M4W67AKIrOzs7MTHxpptu+stf/qJfg5si2P3C2l2BCLDC4D3h7owRbL4A4GmR7Xvh7q5AuFhh8J4IdsbItmAA8KKId7wIdlcgLKwweE9kO2PEGzEAeEhz9rrIdlcgdKwweMDJkyfVU21n1K4G0JztGABav3B3uWjtrkCIiDvhASUlJeo2qu6MIt3x+19Mwt2UAcArItjfori7AqEg7oQHVFVVdenSRW6Ocmf84x//mJ6eLv8KX4hEPSkpKXEA4C9iZwsr6GyM9u4KBEXcCW8YNGhQx44drc3R2hlLS0uTkpKsP2MDAIgMuytiibgT3lBSUiI2RPHzt9gcxYHYFhMSEtq1a7dv3z49KwAgZOyuiCXiTnhGcnJyly5dxOYodkaxLXbv3r1///56JgBAmNhdETPEnfCMiRMnij0xOzvb+k2m4cOHv/zyy3omAECY2F0RM8Sd8Iy//e1v8fHx1raYkpKSlpbG77wDQPOxuyJmiDvhJfn5+dbOOGLECH7nHQCihd0VsUHcCS+xfv9d6NmzJ7/zDgDRwu6K2CDuhMckJyeLnZHfeQeA6GJ3RQwQd8JjrN9/53feASC62F0RA8SdrcK+fftmzZo1atSovLw86386gOYQC2nkyJEzZ87cs2fP1atX9QWHNo89B0BgLj1HiDtb2M6dO/v06VNYWLhs2bJPP/20vLxczwGbXbt26Un4sePHj+/fv3/lypVFRUUZGRlr166N4q4BT2PPQQDsrpBceo4Qd7aYS5cuTZw4sW/fvrt379avAdHz5Zdfjhkzpl+/fmVlZfo1tCXsOQAiE8XnCHFny6iurhY/QEybNq22tla/BrigtLRU/MC6bds2/QLaBvYcAM0UlecIcWcLqKurGz16dHFxcUNDg34NcM2hQ4dycnKauWXAi9hzAERF858jxJ0tYPHixWPHjuUBgNgTW4b4afXw4cP6Bfgaew6AaGnmc4S4M9aOHj2amZlZWVmpXwBiorS0tKCgICq/Hg5PYM8BEF3NeY4Qd8ba1KlTly9frqcCMXT77bevWbNGT4VPsecAiLqInyPEnTF16tSprl27XrhwQb8AxNAXX3yRlZUV2Y+q8Bb2HABuiPg5QtwZUxs2bJg0aZKeCsTcqFGj+DKdtoA9B4BLInuOEHfG1OTJk8VjQE8FYm7VqlUPPvigngrfYc8B4JLIniPEnTFVWFh45MgRPRWIuQMHDgwfPlxPhe+w5wBwSWTPEeLOmMrKyvr222/1VCDmKioqcnNz9VT4DnsOAJdE9hwh7oyphISE+vp6PTWYuDgXb1NZWVnv3r1TUlL0Cy4IdyDh5lc1p2wrZB/Oxo0b7777bi0xdHV1de3bt9dT4TuR7TkW+6pTxXLrkAJ3SRNW5lailfS5lXTDkalvpnSTUPKHksdD7MNpkeeI3gm4yn7XNY4ZHBOjpaioaO/evXqqO1wdiCaWbbWIMWPGnDp1Sk8Nh++nCI0h3OW4JomJiTk5OQ899FBFRYWewyCCrSNoZ4IKq4awMofFvZoRsXBvSij5Q8njaS3yHAm7AJoj6B1yzOCYGC1paWl6kmtcHYgmlm15FFPUFgS9y1aGmpqao0ePvvDCCz179gzxORTB1hG0M0GFVUNYmcPiXs2IWLg3JZT8oeRp4yKYorALoDmC3iHHDDKxvr7+ueee69Wrl9jx77333urqaplhy5YtQ4YMSUlJGTx4sPrXq0Tmjk2GDx/++eefy3RLnEKc1tbWzp8/P6uJOBCnMpuov6CgIDEx0TpduHBh9+7dr7vuurfeemvevHndm+zcuVPm//8t/OhUTXfsmL0hK93UMZWYnOeff75Hjx5iEm677TZZ1jRpKq1dU5GDBw/efPPNov6cnJzp06dbiabMap2iw8OGDbPSBXEsh+A4D1euXHnsscfElIrhiEFZtVmXTFNhNee4Bky02wRfCnqXtQxPP/30Qw89pF2yr/w4hXXq+Mq1yDxaqUbD+lc183Utjx0bso/Lzl7QPpC4Hw/fsVSj0+vaniL7HO4r3TQhQcfomEF2w9ScypTH1CX7qE05A/fNtDYaDfMfIL9kymPqoUpbBqYijoMyZVbr9M1zJOwCaI6gd8gxg0x86aWXli1bdq7JQ01khjlz5nz11VcXL1588cUXhw4d+vfCTWpqap555pkBAwZo6Y0/bnHJkiVidV5qIhp66qmnZJ7HH3/8xIkT8lRcOnPmzNatW+Pj48VxZWWl9VezZAbrQDu1j07rmL0h68DUMdWaNWtEWdGry5cvixde0ElTae2aivTu3fvdd98Vk/zNN9+IDIEza3Xec8891mu4rKxs8uTJVqKkzcPSpUtnz54ttp7y8vK77rqrMYSpCLoG7Oy3A/4T9C5rGf72t7/JDwrIS44rXy1oeuVqp6bOBNigmvm61lK0hhzH5ci+U6lXteFLQV/X9pSIX+mmCQk6RscM6i1zbE5lymPqkn3UppyB+2ZaG5I2/0HzB8hj6qFKWwamIo6DMmXW6vTHcyTsAmiOoHfIMYNM7Nev3/nz563j7777Tvy0pGUQxHJJSkqSp2p6QkKCnvrjsuL1IKq1jsULT5za86inP/zwg4g75bH8/WJTfsfRqR0zFTR1THXjjTfKPI0hTJpKa9dURPxo+Oqrr2o/6Zoya3Vu3rxZbB/iYMGCBSJeVy9Z1HnIz8/X/pp20KkIZQ1oHG8HfCboXdYy1NbWysUjLzmufLWg6ZWrnQbojGmDiuLr2qI25Dguk1B2KrvAr2t7SsSvdNOEBB2jYwbHW2baWEx5TF2yj9qUM3DfTGtDpc5/KPlNeUw9VGkVmoo4DsqUWavTH8+RsAugOYLeIccMMrFDhw5xChnzaaXk6fHjx2fNmjVw4MDMzMzk5OTAlQsiT11dnXV89epVcWrPo506HpvyB+2YqaCpYyoxOfXK53ZlWdOkqbR2TUX27t07YsQIEV7fdNNNO3bsCJw57sd1ij2lT58+DQ0N/fv3l3+00DQP4lgdS2MIU6E1p506CiUPvC7oXdYylJeX5+XlaZccV75aMPDyk6daumn9q6LyujY15Dgulamg1lXt1FTK/rq2p6iZw3qlmyYk6BgdM8hqTc0FSAzaJfuoTTkD9820Nkzzb8qvMuUx9VClVWgq4jgoU+a4H9fpj+dI2AXQHEHvkGMGmdi3b1/7f+U02krJ0xtuuGHRokVHjhypqqq6cuVK4Mobm34GEj/6WMfi5yTHn4G0U8dj8UPSDz/8YE8P2jFTQ6aOqcTDsqamRp4GnTSV1m7gIuKnwDfeeKNr167WqSmzfbbHjBmzevXqcePGyRTTPPTq1UuO1xJ0KkxTF0AoeeB1Qe+yluGpp56aPXu24yVt5atXtZymHaBdu3byaddoXv+qqLyuAzekjUtlKqgNRKvQVMr+uranyMzhvtIDT0iAMVpMN9fUXIDEoF2yj9qU02Lqm2ltmObflF9lyhO4hxatwsBF2vJzJOwCaI6gd8gxg0xcsWLFa6+9dvbs2cuXLx86dGjChAlaBu00IyND/GglFqL4eaikpCRw5Y1Nv/OxbNkyx9/5kHm0U8fjoUOHihdGbW3tV199NWfOHJketGOmhkwdU4mGPvjgA/EwqKioWLhwYdBJU2ntmoq88sorx44dE93+8MMPxTYROLN9ttetWyd+qF2/fr1MMc3DggUL5s2bZ/1ezpQpUxpDmArT1AUQSh54XdC7bGUQYeLXX3/96KOPiueu/L85WdZx5as1a62YdoD8/PxNmzbJ92BM618Vlde1qSHHcalMBbWBaD03lbK/ru0pMnO4r3TThAQdo2MGWa2puQCJQbtkH7UpZ+C+mdaGaf5N+VWmPKYeqrQKTUUcB2XKbO+kD54jYRdAcwT9Duc4GyvRuipeDNu2bSsoKBDL7tZbb33zzTdlKVmDevr+++/369cvKSlJ7JJLly7VslnURPGcKC4uzmwiDtTPuMk82qnj8eHDhwcPHtyxY8dBgwaJ3VmmB+2YqSFTx1Tnz5+/7777UlNTxStZPPOCTppKa9dUZMaMGbm5uSJxxIgRBw8eDJzZPtvix9n27dufPn1appjmQfzA/fDDD3fr1k0EAfbPITpOhWnqTOoi+r5feE6Ie45YDNnZ2WLVqd/fKVeR48pX15i23kw7gHiii5dnYmKieFI2mte/Kiqva1NDjuNSmQpqA9F6biplf13bU2TmcF/ppgkJOkbHDLJaU3MBEoN2yT5qU87AfTOtDdP8m/KrTHlMPVRpFZqKOA7KlNneSR88R4JUiujK4m/WoXWI7O+bwXPYcwC4JLLnCHFnTBUWFh45ckRPBWLuwIEDw4cP11PhO+w5AFwS2XOEuDOmJk+evGHDBj0ViLlVq1Y9+OCDeip8hz0HgEsie44Qd8aUeABMmjRJTwVibtSoUbt379ZT4TvsOQBcEtlzhLgzpk6dOtW1a1f5tVtAi/jiiy+ysrKuXr2qX4DvsOcAcEPEzxHizlibOnXq8uXL9VQghm6//fY1a9boqfAp9hwAURfxc4S4M9aOHj2amZmp/fUqIGZKS0sLCgoi+CEVHsWeAyC6mvMcIe5sAYsXLx47dmxDQ4N+AXDZoUOHMjIyDh8+rF+Ar7HnAIiWZj5HiDtbQF1d3ejRo4uLi3kMIJbEZpGTk7Nt2zb9AvyOPQdAVDT/OULc2TKqq6uLioqmTZvm+Kd3gKgrLS0VP6E2Z7OAp7HnAGimqDxHiDtbzKVLlyZOnNi3b98IvoYACN2XX345ZsyYfv36lZWV6dfQlrDnAIhMFJ8jxJ0tbOfOnX369CksLFy2bNmnn35aXl6u5wDCd/z48f37969cubKoqEj8eLp27drIfgEc/sOeAyAULj1HiDtbhX379s2aNWvUqFF5eXlxQLOJhTRy5MiZM2fu2bMnKjsFfIY9B0BgLj1HiDvhPeL1oCcBAJqN3RVuY4XBe9gZAcAN7K5wGysM3sPOCABuYHeF21hh8B52RgBwA7sr3MYKg/ewMwKAG9hd4TZWGLyHnREA3MDuCrexwuA97IwA4AZ2V7iNFQYPOHnypHqq7YzaVQBAZIg74TZWGDygpKTko48+kqfqzijSxVV5CgCIGHEn3MYKgwdUVVWlpqbK0FPujK+++mp6erq4+vesAIBIEXfCbawweMPQoUN/8pOfWKGntTM++uijSUlJU6ZM0bMCACJC3Am3scLgDTt27BAbYufOnUXoKQ5E0BkfH5+QkLBv3z49KwAgIsSdcBsrDJ6RmpoqYk0ResY1KSws7N+/v54JABAp4k64jRUGz5g9e7bYE9u1a2fFnWPGjHn55Zf1TACASBF3wm2sMHhGVVVVQkKCFXT27dv32muv5RNFABBFxJ1wGysMXjJkyBAr7vzlL3/JJ4oAILqIO+E2Vhi8ZMeOHfHx8WJnvP766/lEEQBEF3En3MYKg8ekpqaKnZFPFAFA1BF3wm2sMHiM9ekiPlEEAFFH3Am3+X+FnTx5cuPGjZMnTy4sLMzOzrZ+OxBAi8vJyRk4cOCUKVM2b95cXV2tv3QBxFwccSdc5ucVdvTo0alTp6anp4ugc8OGDUeOHDlx4oSeCR60a9cuPQkeJF6PZWVl69evHz9+vHidLly4kOgTaFnEnXCbP1dYXV3d4sWLMzMzly9ffuHCBf0ygFamoqJixowZ2dnZn3zyiX4NQKwQd8JtPlxh1dXVo0ePHjt2bGVlpX4NQCu2e/du8ePipk2b9AsAYoK4E27z2wq7dOlSUVFRcXFxQ0ODfg1Aq/f1119nZWXxrifQIog74Ta/rbCJEydOmzaNoBPwrt27d2dnZ/O7nkDsEXfCbb5aYTt37rz++utra2v1CwA8ZebMmb/97W/1VAAuI+6E2/yzwhoaGvr06bN79279AgCvqaioSE9P5y1PIMaIO+E2/6ywTz75pLCwUE8F4E3jx4/fsmWLngrATcSdcJt/Vtgjjzzy7LPP6qkAvKmkpOT+++/XUwG4ibgTbvPPChs5cuT+/fv1VADeVFZWNnDgQD0VgJuIO+E2/6yw3NzciooKPRWAN3377bdZWVl6KgA3EXfCbf5ZYe3bt6+rq9NTQ9NqX2mttmOR8dlwoiKsOQmauaysrHfv3ikpKfqFmLB3b+PGjXfffbeWGKL6+vqEhAQ9FYCb7K9iILr8s8JCebWcOXNm2rRpGRkZ4sF85513rlu3Ts/hJJSaXdKCTSM2onuLi4qK9u7dq6e2nDFjxpw6dUpPDVl0JwdAULzo4Db/rLBQXi3jxo1btGjR2bNnL168+Kc//Wns2LF6Dieh1OySFmwasRHdW5yWlqYneVl0JwdAULzo4Db/rLBQXi0pKSmO3wgoyx48ePDmm28W2XJycqZPn25dUjU2/fffc88916tXL/GMv/fee2WF4urChQu7d+9+3XXXvfXWW/PmzeveZOfOnf+/nUZRqmOT4cOHf/755zJdEpU///zzPXr0EH247bbbZMdMjapE5i1bthQUFCQmJjaai9jHGCCzWmdtbe2wYcOsdEEcy6/odxzXlStXHnvsMTEDYjhiUFZt1iVRcP78+VlNxIGsx2puyJAhonuDBw8+fPiwlW7qnuNYVKLC1157rWfPntdcc40oeP78eZmuzpWpP/YhhNsTx5lRyTlpDCez40T93xpt0mgelDb2uEjXrX1yZPcCN22/vyayQgCxwYsObvPPCgvl1SIig8cff3z//v0//PCDmi7L9u7d+91337148eI333yzbNky7arlpZdeEpfONXmoicz21FNPnTlzZuvWrfHx8eK4srKytLRUPODV4kJNTc0zzzwzYMAALV1Ys2aN6KGo5PLly+IBL5s2NaoSmUXZEydOWKemIo5jNGXW6rznnnusWKGsrGzy5MlWoqSNa+nSpbNnzxaRWXl5+V133dWozOSSJUtEpHKpiWhXzJWVLjLMmTPnq6++Et178cUXhw4daqWbuuc4FpWo8Iknnjh27JiIOB955BFRuUxXx2Xqj30IkfUkwB23r9tQMpsmSq3NNCht7BGvW/vkRHx/TeyTA8BVvOjgNv+ssFBeLf/zP/8joqXU1NTExMSf//znX3zxhZUuy2ZlZb366qvau4lazf369ZNvm3333Xc5OTnWscwmglrx/JbH7du3t45V4rnr+JmJG2+8UdQpT2WdpkZVIfbTcYymzFqdmzdvFiGLOFiwYIEIU9RLFnVc+fn5IoJRr8raRJQmhykiHnGqZWhsqiopKck6NnXPcSwqtcKTJ0/m5eXZ0xvN/bEPIeKemO6447oNmtk0UWq6aVBaixGvW/vkRHx/TRwnB4B7eNHBbf5ZYaG/WhoaGr7++uuFCxeKIM9KkWX37t07YsQI8cS96aabduzYoV21dOjQIU4hH9VqNsfj48ePz5o1a+DAgZmZmcnJyY4dFpXX19fLU5nH1KhKq9BUxHGMpsxxP65ThFx9+vQRE9i/f/8LFy5YiaZxiWN1LI1KbeKS/PKBq1evilMtg3Zq6p7jWFRqhQEaMvXHPoSwemKaGZVMDCuzdtUx3TQoU1nTsalj9slRL4XbtKOgGQBEFy86uM0/KyzcV0tNTU3nzp2tY63sxYsX33jjja5du1qn7dq1U7+hqW/fvvL/KFWOz2z1+IYbbli0aNGRI0eqqqquXLni2OG8vDzRMXkq85gaVWkVBi6ijdGU2d7JMWPGrF69ety4cTLFNK5evXqdOXNGZmtUauvdu7e8VFlZ6fh+mHpq6p5FG4tKrVB0Lz8/357eaO6PfQhh9cQ0M6qwlodMNE2Umm4alKms6djUMfvkyEsRNO0oaAYA0cWLDm7zzwoL5dVSVFT0/vvvi8fn999/v3bt2kmTJlnpsuwrr7xy7Ngx8XD98MMPRYRhJYpgZdOmTfKtnRUrVrz22mtnz569fPnyoUOHJkyYoFViOs7IyNi7d6+o/Pjx4yUlJY4dnjNnzgcffCDC3IqKioULF8o8pkZVWoWmIo5jNGW2d3LdunUdOnRYv369TDGNa8GCBfPmzbN+/2/KlCmNSm1LlixZtmyZ4+//WQfaqal7jmNRiRo+++yz2trac+fOLV++3Po1RCtdzWbqj30IYfXENDOqsJaHTDRNlJpuGpSprOnY1DH75MhLETTtKGgGANHFiw5u888KC+XV8swzz/zsZz9LTk7OzMx84IEH1E9tWwczZszIzc0VcdWIESMOHjxoJYpAUEQSiYmJ4gEsTkVQuG3btoKCApHt1ltvffPNN7VKTMci5O3Xr19SUpIIZJcuXerY4fPnz993332pqamixdWrV8s8pkZVWoWmIo5jNGW2d/LEiRPt27c/ffq0TDGNq6am5uGHH+7WrVteXp79887FxcWZTcSB+nln60A7NXXPcSwqUcNtt93WsWNH0QcRd168eFGmq9lM/bEPIayemGZGFdbykImmiVLTTYMylTUdmzpmnxx5KYKmHQXNACC6eNHBbf5ZYc35e0XwK/ZQ7+LvFQGxx54Jt/lnhfH32WHHHupd/H12IPbYM+E2/6ywkSNH7t+/X08F4E1lZWUDBw7UUwG4ibgTbvPPCnvkkUeeffZZPRWAN5WUlNx///16KgA3EXfCbf5ZYZ988klhYaGeCsCbxo8fv2XLFj0VgJuIO+E2/6ywhoaGPn367N69W78AwGsqKirS09MD/P0nAG4g7oTbfLXCdu7cef3118svbQHgUTNnzvztb3+rpwJwGXEn3Oa3FTZx4sRp06Y1NDToFwB4xO7du7Ozs3mzE4g94k64zW8r7NKlS0VFRcXFxYSegBd9/fXXWVlZn3zyiX4BgPuIO+E2H66w6urq0aNHjx07trKyUr8GoBXbvXt3Zmbmpk2b9AsAYoK4E27z5wqrq6tbvHixeIAtX778woUL+mUArUxFRcWMGTOys7N5pxNoQcSdcJufV9jRo0enTp2anp4+efLkDRs2HDly5MSJE3omAC1EvB7LysrWr18/fvx48TpduHAhv9MJtCziTrjN/yvs5MmTGzduFKFnYWFhdnZ2HIDWIScnZ+DAgVOmTNm8eTMRJ9AaxBF3wmWsMHgPOyMAuIHdFW5jhcF72BkBwA3srnAbKwzew84IAG5gd4XbWGHwHnZGAHADuyvcxgqD97AzAoAb2F3hNlYYvIedEQDcwO4Kt7HC4D3sjADgBnZXuI0VBg84efKkeqrtjNpVAEBkiDvhNlYYPKCkpOSjjz6Sp+rOKNLFVXkKAIgYcSfcxgqDB1RVVXXp0kWGnnJn3LNnT3p6urj696wAgEgRd8JtrDB4w5AhQ1JSUqzQ09oZ33///aSkpClTpuhZAQARIe6E21hh8IZVq1bFx8d37dpVhJ5iZxRBZ2JiYrt27fbt26dnBQBEhLgTbmOFwRsaGhpEoNmjR49u3bqJnVEcX3vttf3799fzAQAiRdwJt7HC4Bl33nmn2BMHDBgQ12TQoEEvv/yyngkAECniTriNFQbPOHr0qBVxWu93pqam8okiAIgi4k64jRUGL8nLy7PizsLCQj5RBADRRdwJt7HC4CWrVq2y4k4RgPKJIgCILuJOuI0VBi+xPl0kdkY+UQQAUUfcCbexwuAx1qeL+EQRAEQdcSfcFuUVtm/fvlmzZo0aNUr+Hh4AeIXYuEaOHDlz5sw9e/ZcvXpV3+AAv4sj7oTLorbCdu7c2adPn8LCwmXLln366afl5eV6DiBKdu3apScB0XD8+PH9+/evXLmyqKgoIyNj7dq1RJ9oU4g74bYorLBLly5NnDixb9++u3fv1q8BgDd9+eWXY8aM6devX1lZmX4N8CniTrituSusurq6qKho2rRptbW1+jUA8LjS0tKMjIxt27bpFwA/Iu6E25q1wurq6kaPHl1cXNzQ0KBfAwBfOHToUE5ODqEn2gLiTritWSts8eLFY8eOJegE4G8i9MzIyDh8+LB+AfAX4k64LfIVdvTo0czMzMrKSv0CAPhOaWlpQUEBHzOCvxF3wm2Rr7CpU6cuX75cTwUAn7r99tvXrFmjpwI+QtwJt0W4wk6dOtW1a9cLFy7oFwDAp7744ousrCze8oSPEXfCbRGusA0bNkyaNElPBQBfGzVqFF8YBx8j7oTbIlxhkydPFqGnngoAvrZq1aoHH3xQTwX8grgTbotwhRUWFh45ckRPBQBfO3DgwPDhw/VUwC+IO+G2CFdYVlbWt99+q6cCgK9VVFTk5ubqqYBfEHfCbRGusISEhPr6ej01BJ5Y0zHoZLSaiFY9iLGo3LioVGLnUrWtSsRjrKura9++vZ4K+EXELw0gRBGusFCW5vnz57OzszMyMsSBTAyloCrc/FERg0Zj0EQr17IzEPvW3WjRjToRFNMOH2N5w20RrrBQlubrr7/+0EMP/frXvy4pKZGJoRRUhZs/KmLQaAyaaOVadgZi37obLbpRJ4Ji2uFjLG+4LcIVFsrSHD58+P79+//85z+PHDlSJsqC9fX1zz33XK9evdLS0u69997q6mqZYcuWLQUFBYmJiXE/ZmUQRTo2EfV//vnnVuLBgwdvvvnmlJSUnJyc6dOnW4kqxwy1tbXz58/PaiIOxKmVLtratWvXsGHDrrnmmnvuuefcuXMyXfat0TwEjWOH5XBMlWhtNTQ0rFy5smfPnp07dx47dmxCQoJWT6OhIceBqwJ3YMiQIaLs4MGDHf9CYIgTYu+Dclf/l5XNsf/qANVTrelGc3H7KH7c+P9WGHrP7RzbvXLlymOPPda9e/cePXo8//zz9hatf8WSE8tMViWO5SJ0rFb0U9Qm6hRduu2226xKAuQP2n/HDGq1UsRTFOd0CxrNFWpTFyCnqWnHqbC6IReMHKNpEwjAcX4Af2B5w20RrrCgS/O//uu/+vbt29gUMIlo6ejRo1a6LPjSSy8tW7bsXJOHmsgMjz/++IkTJ7T8mpqammeeeWbAgAHWae/evd99992LFy9+8803otof5zVmWLJkiXiwXWoiEp966ikrXTT65JNPHjt2TOR/4YUXZs+eLdPVvpmG4EjrcLjzsG7dutWrV1+4cEHUs2/fPlncPj/hzkyADsyZM+err74SZV988cWhQ4f+uNz/5QllQhz7YO+5xTRR2qnWtGQv7jgKrdqweu5Ia3fp0qVi2YgIqby8/K677mq0tShPxQ82VihWVlY2efJkNU+jrdo1a9aIUZ85c+by5csiorLPYbh33zGDvdrGZkyR6RaYKrRPnSln4KbtK8FxYzFtAgE4zg/gDyxvuC3CFRZ0aT722GPySSBiOLHjW8eyYL9+/eTvfX733Xc5OTlaBsdTlXjeyLf9srKyXn31VdM7jo2GDOK5JZq2jsWzXJxax2qj4lGXl5dnT280D8FE7XC483DTTTepnZdXHecnrJkJpQOiwqSkJHkqhTghjn1w7LnFcaK00wiKq6NoTs9N1Hbz8/MrKyvVq6aBbN682Xp1LFiwYOvWrWoei1rtjTfeKFdso61OS1h33zGDY7URT5HpFpgqtE+dKWfQpk0rQT01bQIBOM4P4A8sb7gtwhUWeGlevXo1Ozv7+PHj1ul///d/i9O6urpGpWCHDh3iFPHx8Va66fFgEXXOmjVr4MCBmZmZycnJ8urevXtHjBjRvn17EZ/t2LFDLRIgg6jB6lVjU5/FqXWsNlpfXy+6ak9vNA9BZeqwPDBVIjPIbOoXCNjrMTXkOHBViB3QTh0TTVU59kEra+q/qRvRLR5Wz1WmdsWx9oUPpp6IiKpPnz4NDQ39+/eXf3jWVK1pGZjyB+2/Ywatq5aIp8g0cFOF9qkz5XRs2jQV8kA7NW0CAWhVAX7C8obbIlxhgZfm9u3b1eeE5Y9//GOjUrBv3772/yRttNXcrl07+VQQbrjhhkWLFh05cqSqqurKlSta5osXL77xxhtdu3ZVE1Vaht69e585c8Y6rqysdHy/U4QF1i8MaOmN5iGoTB0Odx5yc3MvXbokT+31mBqyBJiZEDugnTommqqyaH0I8c4mJSX98MMPMpt94BZTcdMotNbD6rnK1G6vXr3k0rJoLaodGzNmzOrVq8eNGydTTNXm5eXV1NTIbM2/+xYtg+O9jniKTLfAVKF96kw5LVrTpqkwdcO0CQTgOD+AP7C84bYIV1jgpTlhwoTNmzerKRs3btR+y23FihWvvfba2bNnL1++fOjQIVHEStdqzs/P37Rpk3z/IyMjY+/eveJxcvz48ZKSEpn5lVdeOXbsmEj/8MMPZZiocsywZMmSZcuW2X+1S1S7f//+2ialpaUzZ86U6daBxTQElanD4c7DrFmzxDyIPF999dUDDzxgr8fUkOPAVSF2wPGOhzghjn0I8c4OHTpUxGTiRoiBz5kzxz5wi6m4aRRa62H1XGVqd8GCBfPmzbN+SXHKlCmNthbVjq1bt65Dhw7r16+XKaZqxQx88MEHIn6tqKhYuHBh8+++YwbHex3xFJlugalC+9SZcjo2bZoKUzdMm0AAjvMD+APLG26LcIUF+N74ysrKLl26qG/OCd9//31aWpq4JNe0eHZu27atoKBAPHFvvfXWN99800rXFr14yoonSmJioniciNP333+/X79+SUlJ4im+dOlSmXnGjBm5ubmiqhEjRhw8eFCtIUAGEc0UFxdnNhEH8qOsYnR33HFH586dRZFnn33WMVZoNA9BZepwuPNw7ty5yZMnp6amijyHDx/OysrSspkachy4KsQOOG5GIU6IYx9CvLNisIMHD+7YseOgQYNE3GafQIupuGkUWuth9Vxlarempubhhx/u1q1bXl6e9aFsrUW1YydOnGjfvv3p06dliqna8+fP33fffWIZiKpEON78u++YwfFeRzxFpltgqtA+daacjk2bpsLUDdMmYFLH98bD1xxf/kAURbjCsvg7mS1EBPTr1q2zf/AZQAzwdzLhb8SdcFuEK6ywsPDIkSN6KtzUo0ePxMTELl263H333QT9QIs4cODA8OHD9VTAL4g74bYIV9jkyZM3bNigpwKAr61aterBBx/UUwG/IO6E2yJcYSLonDRpkp4KAL42atSo3bt366mAXxB3wm0RrrBTp0517dpVft0gAPjeF198kZWVdfXqVf0C4BfEnXBb5Cts6tSpy5cv11MBwKduv/32NWvW6KmAjxB3wm2Rr7CjR49mZmZqf9EOAHyptLS0oKCANzvhb8SdcFuzVtjixYvHjh3b0NCgXwAAHzl06FBGRsbhw4f1C4C/EHfCbc1aYXV1daNHjy4uLib0BOBXIujMycnZtm2bfgHwHeJOuK25K6y6urqoqGjatGlB/84HAHhOaWlpRkYGQSfaCOJOuC0KK+zSpUsTJ07s27cvXy8CwDe+/PLLMWPG9OvXr6ysTL8G+BRxJ9wWtRW2c+fOPn36FBYWLlu27NNPPy0vL9dzAEDrdvz48f37969cubKoqCgjI2Pt2rV8kAhtCnEn3BblFbZv375Zs2aNGjUqLy8vDgA8RWxcI0eOnDlz5p49e4g40QbFEXfCZawweA87IwC4gd0VbmOFwXvYGQHADeyucBsrDN7DzggAbmB3hdtYYfAedkYAcAO7K9zGCoP3sDPCQy5duqQnAa0VuyvcxgqD97Azwis++uijjIwM8a9+AWiV2F3hNlYYvIedEZ5gBZ0rVqwg9IRXsLvCbawweA87I1o/9Z1O3vWEV7C7wm2sMHgPOyNaOXugaU8BWiF2V7iNFQbvYWdEa2YKMU3pQOvB7gq3scLgPeyMaLUCB5eBrwItjt0VbmOFwXvYGdE6hRJWhpIHaCnsrnAbKwzew86IGDh58mRJSUlVVZV+wSD0gDL0nBbRB9ET0R/9AhBt7K5wGysM3sPOiNgQoeE111zzy1/+8pNPPtGv/Vi4oWSI+d95553bbrstPT09aE4gKthd4TZWGLyHnREx88EHHyQkJMTHx+fm5q5cudLx7c8Qg0hNgFLffvvtv/zLv3Tq1Em0m5KS4pgHcAO7K9zGCoP3sDMilkTomZSUJFZdhw4dkpOTtbc/A4SPQdnLvvPOOzfeeGO7du1Ec7169erWrVtkNQORYXeF21hh8B52RsSYDD2F+Pj4Tp06WW9/bt++PeKg02KFnn/4wx+sNzitJoSf/vSnBJ2IPXZXuI0VBu+Rz2agxU2fPl1foGESNeiVAi1HX6BAVLHCACCIF198MT4+XjySExMTCwsL8/Ly+vfv/9JLL0Xr/U5Rj2hCVHvNNdckJCSIhpKTk9PS0ppTMwC0QsSdABCIFXRee+21AwcOFHHh/fff797vd4qa7777bhF0durUScS4hJ4AfIa4EwCMXnnllfbt27dr1856gzM2n2cXrVhvf4p4V8SgjnkAwIuIOwHAmQj4unTpor3B6ShAEOkoxPyi3XvvvZfv7wTgG8SdAOCAv1cEAFFH3AkA0RFKQBlKHgDwK+JOAIiawGFl4KsA4HvEnQAQTabg0pQOAG0HcScARJk9xLSnAEAbRNwJANGnBpoEnQBgIe4EAFdY4eaKFSsIOgHAQtwJAG4R4WZcXBxBJwBYiDsBwEUi7tSTAKCtYkMEABcRdwKAxIYIAC4i7gQAiQ0RAFxE3AkAEhsiALiIuBMAJDZEAHARcScASGyIAOAi4k4AkNgQASCaTp48qZ5qcad2FQDaFOJOAIimkpIS9Yvi1bhTpIur8hQA2hriTgCIpqqqqrS0NBl6yrjz7bffTk9PF1f/nhUA2hjiTgCIskGDBiUnJ1uhpxV3vvjii0lJSVOmTNGzAkBbQtwJAFH2zjvviHDTetdTHIigMz4+PiEhYd++fXpWAGhLiDsBIPo6deqUmJgoQk8Rd4qgs2/fvv3799czAUAbQ9wJANH3m9/8RkScycnJcU3+4R/+4eWXX9YzAUAbQ9wJANF3+vTpdu3aWUFn9+7dr732Wj5RBADEnQDgigEDBlhx5+23384nigCgkbgTAFxifbpI6NOnD58oAoBG4k4AcE+nTp1E3MknigDAQtwJAG6xPl3EJ4oAwELcCQDR1NDQ8PHHH8+fP3/o0KHZ2dki7hT/imORItLFVb0AALQZxJ0AEDV79uwZNGjQwIEDn3766c8++6yiomLXrl3iX3EsUkS6uCry6MUAoG0g7gSAKKirq5s7d25+fv5//Md/6NcU4qrII3KK/Po1APA74k4AaC4RRN5555133HHH+fPn9Ws2Io/IKfITegJoa4g7AaC55s6dK0LJ0ONIkVPkF6X0CwDga8SdANAse/bsyc/PP3funJq4b9++J554YuHChU82+fd///fy8nI1g8gvSvG7ngDaFOJOAIhcQ0PDT3/6U/V3OmtraxcsWDB37tzBgwenpaXFxcWJf4cOHbp48eLt27fX19fLnKKUKMsn3AG0HcSdABC5jz/+uLCwUE0pLi6+//77k5KSrD9WJImUxx9/fMeOHWpmUVbUoKYAgI8RdwJA5ObPn7906VJ5unXr1rlz59qDTotIX758ufof7qKsqEGeAoC/EXcCQOSGDBly4MABeTpnzpzBgwfr8aZi2rRpv//972V+UVbUIE8BwN+IOwEgctnZ2SdOnJCnjz76aGpqqh5sKnr27Llq1SqZX5QVNchTAPA34k4AiNxPfvKT2tpaebpo0aKEhAQ92FSkpKSo/y8vyooa5CkA+BtxJwBETnu/8/HHHw/8fuegQYN4vxNAm0XcCQCR036/c+HChYF/v/Pf/u3f+P1OAG0WcScARE77PPvhw4eLi4tNn2fPyMhYtWoVn2cH0GYRdwJA5Ozf3/n666//+te/toee11577erVq/n+TgBtGXEnAETO/veK6uvr33777QULFgwdOtT6e0Xp6enTpk1bsWKFCDr5e0UA2jLiTgBoFse/z15eXr558+bly5c/+eSTK1eu/P3vf8/fZwcA4k4AaK65c+fecccddXV1+gUDkVPkF6X0CwDga8SdANBcIo688847RSh5/vx5/ZqNyCNyivyhx6kA4A/EnQAQBSKInDt3bn5+vvq7nnbiqsgjchJ0AmiDiDsBIGr27NkzaNCggQMHPv3005999llFRYVIFP+KY5Ei0sVVfqcTQJtF3AkA0dTQ0PDxxx/Pnz9/6NChubm5cXFx4l9xLFJEOp9eB9CWEXcCAAAgFog7AQAAEAvEnQAAAIgF4k4AAADEAnEnAAAAYoG4EwAAALFA3AkAAIBYIO4EAABALBB3AgAAIBYc4s4rV6688MIL48aN+wcAAAAgTCKMFMGkCCm1INMh7vzXf/3XOAAAAKAZREipBZkOcWdaWppeDgAAAAiHCCm1INMh7oyPj9fLAQAAAOEQIaUWZDrEnQUFBXo5AAAAIBwipNSCTIe4c8+ePddcc41eFAAAAAiNCCZFSKkFmQ5xp1BdXf3xxx//GQAAAAiTCCNFMKnHl6a4EwAAAIgu4k4AAADEAnEnAAAAYoG4EwAAALHw/wCyt3KqVM/ongAAAABJRU5ErkJggg==;" vertex="1" parent="1">
                    <mxGeometry width="983.27" height="1220" as="geometry"/>
                </mxCell>
                <mxCell id="6" value="" style="rounded=0;whiteSpace=wrap;html=1;fillColor=#ffff;strokeColor=none;" vertex="1" parent="1">
                    <mxGeometry x="580" y="700" width="150" height="80" as="geometry"/>
                </mxCell>
                <mxCell id="7" value="" style="rounded=0;whiteSpace=wrap;html=1;fillColor=#ffff;strokeColor=none;" vertex="1" parent="1">
                    <mxGeometry x="520" y="760" width="150" height="30" as="geometry"/>
                </mxCell>
                <mxCell id="8" value="" style="rounded=0;whiteSpace=wrap;html=1;fillColor=#ffff;strokeColor=none;" vertex="1" parent="1">
                    <mxGeometry x="650" y="700" width="20" as="geometry"/>
                </mxCell>
            </root>
        </mxGraphModel>
    </diagram>
</mxfile>